<svg viewBox="0 0 44 44" xmlns="http://www.w3.org/2000/svg">
  <path d="M28.9091 11C32.7249 11 35.8182 14.0933 35.8182 17.9091V31.7273C35.8182 35.0532 33.5301 38.267 28.954 41.3687C29.8857 37.2441 29.5957 35.1818 28.084 35.1818H15.0909C11.2751 35.1818 8.18182 32.0885 8.18182 28.2727V17.9091C8.18182 14.0933 11.2751 11 15.0909 11H28.9091ZM28.9091 17.9091H15.0909C14.137 17.9091 13.3636 18.6824 13.3636 19.6364V24.8182C13.3636 25.7721 14.137 26.5455 15.0909 26.5455H28.9091C29.863 26.5455 30.6364 25.7721 30.6364 24.8182V19.6364C30.6364 18.6824 29.863 17.9091 28.9091 17.9091ZM18.5455 19.6364C19.4994 19.6364 20.2727 20.4097 20.2727 21.3636V23.0909C20.2727 24.0449 19.4994 24.8182 18.5455 24.8182C17.5915 24.8182 16.8182 24.0449 16.8182 23.0909V21.3636C16.8182 20.4097 17.5915 19.6364 18.5455 19.6364ZM25.4545 19.6364C26.4085 19.6364 27.1818 20.4097 27.1818 21.3636V23.0909C27.1818 24.0449 26.4085 24.8182 25.4545 24.8182C24.5006 24.8182 23.7273 24.0449 23.7273 23.0909V21.3636C23.7273 20.4097 24.5006 19.6364 25.4545 19.6364ZM4.72727 17.9091H6.45455V28.2727H4.72727C3.77333 28.2727 3 27.4994 3 26.5455V19.6364C3 18.6824 3.77333 17.9091 4.72727 17.9091ZM37.5455 17.9091H39.2727C40.2267 17.9091 41 18.6824 41 19.6364V26.5455C41 27.4994 40.2267 28.2727 39.2727 28.2727H37.5455V17.9091Z"/>
</svg>
