<svg viewBox="0 0 44 44" xmlns="http://www.w3.org/2000/svg">
  <path d="M22.0001 26.5834C25.0434 26.5834 27.5001 24.1267 27.5001 21.0834V10.0834C27.5001 7.04004 25.0434 4.58337 22.0001 4.58337C18.9567 4.58337 16.5001 7.04004 16.5001 10.0834V21.0834C16.5001 24.1267 18.9567 26.5834 22.0001 26.5834ZM20.1667 10.0834C20.1667 9.07504 20.9917 8.25004 22.0001 8.25004C23.0084 8.25004 23.8334 9.07504 23.8334 10.0834V21.0834C23.8334 22.0917 23.0084 22.9167 22.0001 22.9167C20.9917 22.9167 20.1667 22.0917 20.1667 21.0834V10.0834ZM31.1667 21.0834C31.1667 26.1434 27.0601 30.25 22.0001 30.25C16.9401 30.25 12.8334 26.1434 12.8334 21.0834H9.16675C9.16675 27.555 13.9517 32.8717 20.1667 33.77V39.4167H23.8334V33.77C30.0484 32.8717 34.8334 27.555 34.8334 21.0834H31.1667Z"/>
</svg>
