<?xml version="1.0" encoding="UTF-8"?>
<svg width="226px" height="129px" viewBox="0 0 226 129" version="1.1" xmlns="http://www.w3.org/2000/svg" xmlns:xlink="http://www.w3.org/1999/xlink">
    <title>5A0A1744-E347-4FBD-97EC-A00A55BD63C2@1.5x</title>
    <defs>
        <filter x="-3.9%" y="-11.0%" width="107.8%" height="122.1%" filterUnits="objectBoundingBox" id="filter-1">
            <feOffset dx="0" dy="2" in="SourceAlpha" result="shadowOffsetOuter1"></feOffset>
            <feGaussianBlur stdDeviation="12" in="shadowOffsetOuter1" result="shadowBlurOuter1"></feGaussianBlur>
            <feColorMatrix values="0 0 0 0 0.846283794   0 0 0 0 0.852688215   0 0 0 0 0.91236413  0 0 0 0.5 0" type="matrix" in="shadowBlurOuter1" result="shadowMatrixOuter1"></feColorMatrix>
            <feMerge>
                <feMergeNode in="shadowMatrixOuter1"></feMergeNode>
                <feMergeNode in="SourceGraphic"></feMergeNode>
            </feMerge>
        </filter>
    </defs>
    <g id="Page-1" stroke="none" stroke-width="1" fill="none" fill-rule="evenodd">
        <g id="HR-Integration--Job-Fair" transform="translate(-1095.000000, -879.000000)" fill="#232020">
            <g id="Group-10" filter="url(#filter-1)" transform="translate(80.000000, 835.000000)">
                <g id="Magneto-Logo" transform="translate(1052.000000, 81.000000)">
                    <path d="M13.0550026,38.8535921 C12.7912631,38.2205132 12.441825,37.4162106 12.0066447,36.4403948 C11.5714789,35.4644342 11.1033566,34.4095921 10.6022487,33.2754342 C10.1011408,32.1414211 9.5670763,30.9744079 9.00004077,29.7743948 C8.43300525,28.5743816 7.89894078,27.4403685 7.39783288,26.3722106 C6.89673946,25.3040527 6.42860262,24.3479211 5.99343683,23.5039606 C5.55827104,22.6600001 5.20881841,22.0138948 4.94507894,21.5655001 C4.65496841,24.6776316 4.41759999,28.0468158 4.23298815,31.6733421 C4.04837631,35.2997237 3.89013552,38.9589606 3.75826578,42.6513421 L0,42.6513421 C0.1054955,40.2776579 0.224175658,37.8842895 0.356045394,35.4710921 C0.487915131,33.0578948 0.639563157,30.6842106 0.810992367,28.3501843 C0.982423025,26.0161579 1.16703776,23.741329 1.36484092,21.5259869 C1.56265131,19.3106448 1.78021973,17.2138422 2.01758815,15.2358685 L5.38024473,15.2358685 C6.09233552,16.3962238 6.85716841,17.7677501 7.67475788,19.350158 C8.49234735,20.9325658 9.30992235,22.5874869 10.1275263,24.3150658 C10.9451158,26.0425001 11.7363197,27.7699343 12.5011526,29.4975132 C13.266,31.2249474 13.9648908,32.8006974 14.5978684,34.2249079 C15.2308026,32.8006974 15.9297368,31.2249474 16.6945263,29.4975132 C17.4594605,27.7699343 18.2505921,26.0425001 19.0682105,24.3150658 C19.8858289,22.5874869 20.7034473,20.9325658 21.520921,19.350158 C22.3385394,17.7677501 23.1033289,16.3962238 23.8154342,15.2358685 L27.1781052,15.2358685 C28.0748947,24.0710395 28.7473421,33.2094342 29.1957368,42.6513421 L25.4375,42.6513421 C25.3056447,38.9589606 25.1473026,35.2997237 24.9627631,31.6733421 C24.7780789,28.0468158 24.5407105,24.6776316 24.2506579,21.5655001 C23.9869473,22.0138948 23.6374079,22.6600001 23.2023289,23.5039606 C22.7671052,24.3479211 22.2990263,25.3040527 21.7979473,26.3722106 C21.2968684,27.4403685 20.7627894,28.5743816 20.1957105,29.7743948 C19.6286315,30.9744079 19.0945526,32.1414211 18.5934737,33.2754342 C18.0923947,34.4095921 17.6243158,35.4644342 17.1890921,36.4403948 C16.7538684,37.4162106 16.4044737,38.2205132 16.1407631,38.8535921 L13.0550026,38.8535921 Z" id="Path" fill-rule="nonzero"></path>
                    <path d="M36.813092,40.0007763 C37.6833947,40.0007763 38.454842,39.9810921 39.1274341,39.9414342 C39.7998815,39.9019211 40.3603026,39.8294079 40.8086973,39.7238948 L40.8086973,33.5919737 C40.5449868,33.4601185 40.116421,33.3480921 39.5229999,33.25575 C38.9295789,33.1634079 38.2109605,33.1172369 37.3669999,33.1172369 C36.813092,33.1172369 36.2263289,33.1568948 35.606421,33.2359211 C34.9866578,33.3150921 34.4197236,33.4799474 33.9053289,33.7304869 C33.3910789,33.9810264 32.9625131,34.3239079 32.6196315,34.7589869 C32.2767499,35.1942106 32.1053815,35.7678027 32.1053815,36.4799079 C32.1053815,37.7986053 32.5272894,38.715079 33.3712499,39.229329 C34.2152105,39.7437237 35.3625394,40.0007763 36.813092,40.0007763 Z M36.4965526,21.5655001 C37.973592,21.5655001 39.2196315,21.7566974 40.2351052,22.1392369 C41.2504341,22.5216316 42.0680526,23.0622237 42.6878157,23.7611579 C43.3075789,24.4600922 43.7493157,25.2908816 44.013171,26.2535264 C44.2768815,27.2161711 44.4087368,28.2776711 44.4087368,29.4381711 L44.4087368,42.2952895 C44.0921973,42.3481184 43.6504605,42.4206316 43.0833815,42.5129737 C42.5164473,42.6051711 41.8768552,42.691 41.1647499,42.7700263 C40.4526447,42.8491974 39.6811973,42.9217105 38.8504078,42.9877105 C38.0196184,43.0535658 37.1954868,43.0865658 36.3778684,43.0865658 C35.2175131,43.0865658 34.1493552,42.9678816 33.1735394,42.7305132 C32.1977236,42.4931448 31.3537631,42.1172632 30.6416578,41.6030132 C29.9295526,41.0887632 29.3756447,40.4096579 28.9800789,39.5656974 C28.5845131,38.7217369 28.3866578,37.7062632 28.3866578,36.5194211 C28.3866578,35.3854079 28.6175131,34.4095921 29.0789342,33.5919737 C29.5404999,32.7743553 30.166921,32.115079 30.9580526,31.614 C31.7493289,31.1129211 32.6724605,30.7436974 33.7273026,30.506329 C34.7822894,30.2689606 35.8899605,30.1502764 37.0504605,30.1502764 C37.4196841,30.1502764 37.8020789,30.1699606 38.1976447,30.2096185 C38.5933552,30.2491316 38.969092,30.3018158 39.3251447,30.3678158 C39.6811973,30.4336711 39.9910789,30.4930132 40.2549341,30.5458421 C40.5186447,30.5985264 40.7031841,30.6381843 40.8086973,30.6645264 L40.8086973,29.6358816 C40.8086973,29.0292895 40.742842,28.4293553 40.610842,27.8359343 C40.4789868,27.2425132 40.2416184,26.7150922 39.8988815,26.2535264 C39.5559999,25.7919606 39.0877762,25.4227369 38.4943552,25.1458553 C37.9009341,24.868829 37.1296315,24.7304606 36.1801578,24.7304606 C34.9669736,24.7304606 33.9053289,24.8161448 32.9955131,24.9875132 C32.0855526,25.1590264 31.4064473,25.3370527 30.9580526,25.5215922 L30.5229736,22.4754606 C30.9977105,22.2644343 31.788842,22.0600658 32.8965131,21.8622106 C34.0043289,21.6645001 35.204342,21.5655001 36.4965526,21.5655001 Z" id="Shape" fill-rule="nonzero"></path>
                    <path d="M58.1610525,40.5941974 C57.8445131,40.8052237 57.2314078,41.0755921 56.3214473,41.4051579 C55.4114867,41.7348684 54.3499867,41.8997237 53.1368025,41.8997237 C51.8972762,41.8997237 50.7302631,41.7018684 49.6357631,41.3063027 C48.5412631,40.9107369 47.5851315,40.2974869 46.7675131,39.4666974 C45.9500394,38.6359079 45.3037894,37.60075 44.8290526,36.3612237 C44.3543157,35.1216974 44.1169473,33.6448027 44.1169473,31.9303948 C44.1169473,30.4271579 44.3411447,29.0491185 44.7895394,27.7962764 C45.2379341,26.543579 45.8906973,25.4622501 46.7478289,24.5524343 C47.6049604,23.6424737 48.6532894,22.9303685 49.8928157,22.4161185 C51.1324868,21.9018685 52.5302104,21.6446711 54.0862762,21.6446711 C55.8005394,21.6446711 57.2972631,21.7700132 58.5764473,22.0205527 C59.8554867,22.2710922 60.9303025,22.5018027 61.8006052,22.712829 L61.8006052,41.0689342 C61.8006052,44.23375 60.9829867,46.5282632 59.3478946,47.9524737 C57.7126578,49.3766842 55.2336052,50.0887895 51.9104473,50.0887895 C50.618092,50.0887895 49.3983947,49.9832763 48.2510657,49.77225 C47.1038815,49.5612237 46.1082368,49.3106842 45.2642762,49.0206316 L45.9367236,45.8161579 C46.6753157,46.1063553 47.5786183,46.3634079 48.6466315,46.5876053 C49.7147894,46.8118026 50.8291183,46.9239737 51.9896183,46.9239737 C54.1786183,46.9239737 55.7543683,46.48875 56.7170131,45.6184474 C57.6796578,44.748 58.1610525,43.3634474 58.1610525,41.4645 L58.1610525,40.5941974 Z M58.1213946,25.3237369 C57.752171,25.2183685 57.2577499,25.1193685 56.6379867,25.0271711 C56.0180788,24.934829 55.1807762,24.8886579 54.1257894,24.8886579 C52.1478157,24.8886579 50.6247499,25.5347632 49.556592,26.8271185 C48.4884341,28.1194737 47.9543552,29.8337369 47.9543552,31.9700527 C47.9543552,33.15675 48.1060394,34.1722237 48.4092631,35.0161842 C48.7126315,35.8601448 49.1213683,36.559079 49.6357631,37.1128421 C50.1500131,37.66675 50.7434341,38.0754869 51.4158815,38.3391974 C52.0884736,38.6030527 52.7807499,38.7349079 53.4928552,38.7349079 C54.468671,38.7349079 55.3654604,38.5963948 56.1829341,38.3195132 C57.0005525,38.0424869 57.6468025,37.7194342 58.1213946,37.3502106 L58.1213946,25.3237369 Z" id="Shape" fill-rule="nonzero"></path>
                    <path d="M63.0774736,22.6733158 C63.9214341,22.4622895 65.0422762,22.2380922 66.4401446,22.0007237 C67.838013,21.7633553 69.446763,21.6446711 71.2665393,21.6446711 C72.9017762,21.6446711 74.2599867,21.8753816 75.3413157,22.3369474 C76.4226446,22.7985132 77.2862893,23.4446185 77.9325393,24.2754079 C78.5786446,25.1061974 79.0335525,26.1018422 79.2974078,27.2623422 C79.5611183,28.4226974 79.6929735,29.7018816 79.6929735,31.0996053 L79.6929735,42.6513421 L76.013763,42.6513421 L76.013763,31.8908816 C76.013763,30.6248685 75.9280788,29.5436843 75.7567104,28.6468948 C75.5851972,27.75025 75.3016578,27.0249737 74.906092,26.4710658 C74.5105262,25.9171579 73.9831051,25.515079 73.3236841,25.2643948 C72.6644078,25.0138553 71.8467893,24.8886579 70.8709736,24.8886579 C70.475263,24.8886579 70.0665262,24.901829 69.6446183,24.9281711 C69.2225657,24.9545132 68.820342,24.9875132 68.4379472,25.0271711 C68.0555525,25.0666843 67.7126709,25.1128553 67.4094473,25.1655395 C67.1060788,25.2183685 66.8885394,25.2578816 66.7566841,25.2842237 L66.7566841,42.6513421 L63.0774736,42.6513421 L63.0774736,22.6733158 Z" id="Path" fill-rule="nonzero"></path>
                    <path d="M79.506263,32.4051316 C79.506263,30.5853553 79.7699735,28.9964343 80.2975393,27.638079 C80.8249604,26.2798685 81.5238946,25.1523685 82.3941972,24.2557237 C83.2644999,23.3589343 84.2668025,22.6864869 85.4008156,22.2380922 C86.5348288,21.7896974 87.6953288,21.5655001 88.8821709,21.5655001 C91.6514209,21.5655001 93.7744209,22.4292895 95.2514604,24.1567237 C96.7283551,25.8843027 97.4668025,28.5150395 97.4668025,32.049079 L97.4668025,32.662329 C97.4668025,32.9128685 97.4536314,33.143579 97.4272893,33.3546053 L83.3436709,33.3546053 C83.5018683,35.4909211 84.1216314,37.1128421 85.2029604,38.2205132 C86.2842893,39.328329 87.9722104,39.8820921 90.2667235,39.8820921 C91.5590788,39.8820921 92.6470656,39.7700658 93.5305393,39.5458684 C94.414013,39.3216711 95.0799472,39.1041316 95.5283419,38.8931053 L96.0425919,41.9788948 C95.5941972,42.2162632 94.8097235,42.4668027 93.6887367,42.7305132 C92.5678946,42.9942237 91.2953683,43.126079 89.8711577,43.126079 C88.0777235,43.126079 86.5283156,42.8557105 85.2227893,42.3151184 C83.917263,41.7743816 82.842592,41.0294211 81.9986314,40.0799474 C81.1546709,39.1304737 80.5282499,38.0029737 80.119513,36.6974474 C79.7106314,35.3919211 79.506263,33.9611974 79.506263,32.4051316 Z M93.6293946,30.3876448 C93.6557367,28.7260658 93.2403419,27.3611974 92.3832104,26.2930395 C91.5260788,25.2248816 90.3458946,24.6908027 88.842513,24.6908027 C87.9985525,24.6908027 87.253592,24.8556579 86.6074867,25.1853685 C85.9612367,25.515079 85.4139867,25.9436448 84.965592,26.4710658 C84.517342,26.9984869 84.1678025,27.605079 83.917263,28.2908422 C83.6667235,28.9766053 83.5018683,29.6755395 83.422842,30.3876448 L93.6293946,30.3876448 Z" id="Shape" fill-rule="nonzero"></path>
                    <path d="M101.145434,22.0798948 L108.938934,22.0798948 L108.938934,25.1656843 L101.145434,25.1656843 L101.145434,34.6601316 C101.145434,35.6887763 101.224605,36.53925 101.382802,37.2118421 C101.541145,37.8844342 101.778513,38.4118553 102.094908,38.79425 C102.411447,39.1766448 102.807013,39.4470132 103.28175,39.6052106 C103.756487,39.7635527 104.310395,39.842579 104.943329,39.842579 C106.051,39.842579 106.941131,39.7173816 107.613723,39.4668421 C108.286171,39.2163027 108.754395,39.0382763 109.018105,38.9327632 L109.73021,41.9788948 C109.360987,42.163579 108.714737,42.3942895 107.79175,42.6711711 C106.868618,42.9481974 105.813631,43.0865658 104.626789,43.0865658 C103.229066,43.0865658 102.075224,42.9085395 101.165263,42.5524869 C100.255447,42.1964342 99.523513,41.6623553 98.9696051,40.95025 C98.4158419,40.2381448 98.0267893,39.361329 97.8025919,38.3195132 C97.5783946,37.2776974 97.4663683,36.0711711 97.4663683,34.6997895 L97.4663683,16.3435395 L101.145434,15.7106053 L101.145434,22.0798948 Z" id="Path" fill-rule="nonzero"></path>
                    <path d="M126.088079,32.3656185 C126.088079,34.0008553 125.850855,35.47775 125.376118,36.7964474 C124.901381,38.1151448 124.235447,39.2491579 123.378316,40.1986316 C122.521039,41.1481053 121.499052,41.8798948 120.312355,42.3942895 C119.125513,42.9085395 117.833158,43.1655921 116.435289,43.1655921 C115.037566,43.1655921 113.74521,42.9085395 112.558368,42.3942895 C111.371526,41.8798948 110.349539,41.1481053 109.492408,40.1986316 C108.635276,39.2491579 107.969342,38.1151448 107.494605,36.7964474 C107.019868,35.47775 106.7825,34.0008553 106.7825,32.3656185 C106.7825,30.7568685 107.019868,29.2864869 107.494605,27.9546185 C107.969342,26.62275 108.635276,25.482079 109.492408,24.5326053 C110.349539,23.5831316 111.371526,22.8513422 112.558368,22.3369474 C113.74521,21.8226974 115.037566,21.5655001 116.435289,21.5655001 C117.833158,21.5655001 119.125513,21.8226974 120.312355,22.3369474 C121.499052,22.8513422 122.521039,23.5831316 123.378316,24.5326053 C124.235447,25.482079 124.901381,26.62275 125.376118,27.9546185 C125.850855,29.2864869 126.088079,30.7568685 126.088079,32.3656185 Z M122.250816,32.3656185 C122.250816,30.0447632 121.729908,28.2051579 120.688092,26.8469474 C119.646421,25.4885922 118.228723,24.8094869 116.435289,24.8094869 C114.642,24.8094869 113.224302,25.4885922 112.182631,26.8469474 C111.140816,28.2051579 110.619908,30.0447632 110.619908,32.3656185 C110.619908,34.6864737 111.140816,36.526079 112.182631,37.8842895 C113.224302,39.2426448 114.642,39.92175 116.435289,39.92175 C118.228723,39.92175 119.646421,39.2426448 120.688092,37.8842895 C121.729908,36.526079 122.250816,34.6864737 122.250816,32.3656185 Z" id="Shape" fill-rule="nonzero"></path>
                    <path d="M119.064579,19.0156711 L123.568934,3.41667246 L119.25621,0.340784438 C118.095131,-0.123400798 117.456408,0.167502596 117.339895,1.21349549 C117.165197,2.78247904 115.443987,14.812079 115.021934,17.8214474 C116.513737,18.060408 117.861237,18.4584343 119.064579,19.0156711 Z" id="Path"></path>
                    <path d="M123.568934,3.54547377 L124.445605,3.25545009 L119.718355,0.154114438 C118.896539,-0.0824317327 118.294723,-0.046676667 117.913052,0.261380359 C118.646289,0.237380096 119.160829,0.32158799 119.456526,0.514004043 C119.752368,0.706420095 121.123171,1.71691194 123.568934,3.54547377 Z" id="Path"></path>
                    <path d="M118.981934,19.0155264 C118.975276,19.0107501 119.169079,19.1155395 119.563052,19.3296053 L124.362816,3.22809483 L123.486145,3.41665798 L118.981934,19.0155264 Z" id="Path"></path>
                    <path d="M124.875184,22.8380264 L130.910566,12.2109264 L126.000223,9.02722245 C124.946539,8.7513685 124.312592,8.96333561 124.098526,9.66310929 C123.777355,10.7127843 121.635105,17.2294738 120.747434,19.8125922 C122.342868,20.6061843 123.718737,21.6147106 124.875184,22.8380264 Z" id="Path"></path>
                    <path d="M130.910566,12.246329 L131.346513,12.0157198 L126.400131,8.75673824 C125.365118,8.49681982 124.694263,8.61812377 124.38771,9.12066455 C125.150329,8.87633429 125.730579,8.87500271 126.128316,9.11665534 C126.526052,9.35832245 128.120184,10.4015422 130.910566,12.246329 Z" id="Path"></path>
                    <polygon id="Path" points="124.847684 22.8380264 130.88321 12.2109264 131.319013 11.9803172 125.045395 23.1499343"></polygon>
                    <path d="M130.101921,31.0501053 L144.768684,17.0287238 L136.628105,11.6605356 C135.351526,11.3018488 134.475145,11.5101106 133.998816,12.2853067 C133.284395,13.448108 128.125105,21.7131316 126.400276,24.3337369 C128.118881,26.3681579 129.352763,28.6069474 130.101921,31.0501053 Z" id="Path"></path>
                    <path d="M144.768684,17.0287238 L145.048026,16.3698816 L137.141631,11.3305356 C136.256421,11.0892593 135.520434,11.1701672 134.933526,11.5732303 C135.816276,11.4629409 136.436329,11.5316185 136.793829,11.7792488 C137.151184,12.0268935 139.809421,13.776704 144.768684,17.0287238 Z" id="Path"></path>
                    <path d="M147.725658,8.11096587 C148.180131,8.11096587 148.526052,8.19430534 148.766316,8.36096982 C149.008026,8.52763429 149.129605,8.7821685 149.129605,9.12458692 C149.129605,9.55186455 148.918289,9.84125139 148.497105,9.99276192 C148.555,10.0624527 148.620131,10.1473119 148.6925,10.2473106 C148.766316,10.3473093 148.840131,10.4563974 148.915394,10.5745751 C148.992105,10.6897277 149.064473,10.8094251 149.133947,10.9336672 C149.203421,11.0548698 149.265658,11.1745672 149.320658,11.2927448 L148.679473,11.2927448 C148.621579,11.1836567 148.559342,11.0745685 148.492763,10.9654803 C148.426184,10.8533527 148.358158,10.7457843 148.288684,10.6427606 C148.222105,10.5366974 148.155526,10.4382185 148.088947,10.3473093 C148.022368,10.2533606 147.960131,10.1700356 147.902237,10.0973053 C147.860263,10.1003303 147.824079,10.1018501 147.793684,10.1018501 C147.763289,10.1018501 147.734342,10.1018501 147.706842,10.1018501 L147.428947,10.1018501 L147.428947,11.2927448 L146.857237,11.2927448 L146.857237,8.18824087 C146.996184,8.15793298 147.145263,8.13824877 147.303026,8.12914482 C147.459342,8.11703035 147.601184,8.11096587 147.725658,8.11096587 Z M147.766184,8.60641455 C147.644605,8.60641455 147.533158,8.61095929 147.428947,8.62004877 L147.428947,9.63822903 L147.679342,9.63822903 C147.818289,9.63822903 147.941316,9.63064482 148.048421,9.61549087 C148.154079,9.6003514 148.242368,9.5730685 148.311842,9.53368561 C148.38421,9.49428824 148.43921,9.44125666 148.475394,9.37459087 C148.511579,9.30792508 148.528947,9.22308034 148.528947,9.12004219 C148.528947,9.02308298 148.511579,8.94126324 148.475394,8.87459745 C148.43921,8.80793166 148.385658,8.75490008 148.316184,8.71550271 C148.249605,8.67611982 148.168552,8.64883692 148.074473,8.63369745 C147.980394,8.61550403 147.877631,8.60641455 147.766184,8.60641455 Z" id="Shape" fill-rule="nonzero"></path>
                    <path d="M148.0875,7.19971719 C146.705263,7.19971719 145.586447,8.31943034 145.586447,9.70068297 C145.586447,11.0819211 146.705263,12.2016343 148.0875,12.2016343 C149.468289,12.2016343 150.588552,11.0819211 150.588552,9.70068297 C150.588552,8.31943034 149.468289,7.19971719 148.0875,7.19971719 Z M145.055263,9.70068297 C145.055263,8.02643956 146.412894,6.66921324 148.0875,6.66921324 C149.760658,6.66921324 151.118289,8.02643956 151.118289,9.70068297 C151.118289,11.3749119 149.760658,12.7321527 148.0875,12.7321527 C146.412894,12.7321527 145.055263,11.3749119 145.055263,9.70068297 Z" id="Shape"></path>
                    <polygon id="Path" fill-rule="nonzero" points="63.0663288 48.5275132 64.2181446 48.5275132 64.2181446 54.8627895 63.0663288 54.8627895"></polygon>
                    <polygon id="Path" fill-rule="nonzero" points="70.5169472 48.5275132 70.5169472 49.5238816 68.5696578 49.5238816 68.5696578 54.8627895 67.4087236 54.8627895 67.4087236 49.5238816 65.4614341 49.5238816 65.4614341 48.5275132"></polygon>
                    <path d="M75.796513,54.0034868 C76.2108946,54.0034868 76.5125262,53.9334342 76.7015525,53.7931842 C76.8904341,53.6530789 76.9849472,53.4549342 76.9849472,53.1990395 C76.9849472,53.0466316 76.9513683,52.9156447 76.8843551,52.8059342 C76.8234209,52.6962237 76.7319472,52.5986711 76.6100788,52.5134211 C76.4942893,52.4219474 76.3509999,52.3397368 76.1803551,52.2665 C76.0097104,52.187329 75.8147499,52.1110526 75.5953288,52.0379605 C75.3759078,51.9587895 75.1625657,51.8733947 74.9554472,51.7820658 C74.754263,51.6845132 74.5744999,51.5656842 74.416013,51.4254342 C74.2636051,51.285329 74.1386972,51.1177237 74.0411446,50.9226184 C73.9498157,50.7276579 73.9040788,50.4930395 73.9040788,50.2187632 C73.9040788,49.6458947 74.1020788,49.1979342 74.4982236,48.8748816 C74.894513,48.54575 75.4338025,48.3811842 76.1163814,48.3811842 C76.5125262,48.3811842 76.8630788,48.4269211 77.1677499,48.51825 C77.4786446,48.6036447 77.7223814,48.6981579 77.8991051,48.8017895 L77.5426183,49.7341842 C77.3353551,49.6183947 77.1068157,49.5299605 76.8568551,49.4690263 C76.6131183,49.4080921 76.360263,49.3776974 76.0981446,49.3776974 C75.7872499,49.3776974 75.543513,49.4416711 75.3667893,49.5696184 C75.1961446,49.6975658 75.1107499,49.8774737 75.1107499,50.1090526 C75.1107499,50.2491579 75.1382499,50.3710263 75.1931051,50.4746579 C75.2540393,50.5722105 75.3362499,50.6606447 75.4398814,50.7398158 C75.549592,50.8189868 75.6744999,50.8922237 75.8147499,50.9592368 C75.9610788,51.02625 76.1194209,51.0902237 76.2900657,51.1511579 C76.5888025,51.2608684 76.8538157,51.3736184 77.0855393,51.4894079 C77.3231972,51.5991184 77.5211972,51.7332895 77.6796841,51.8917763 C77.8442499,52.0440395 77.9691578,52.2269868 78.0545525,52.4401842 C78.1398025,52.6474474 78.1824999,52.9003026 78.1824999,53.1990395 C78.1824999,53.7719079 77.9782762,54.2168289 77.5699735,54.5338026 C77.1677499,54.8445526 76.5764999,55 75.796513,55 C75.5343946,55 75.2936972,54.9817632 75.0742762,54.9451447 C74.8609341,54.9146053 74.6688683,54.8750921 74.4982236,54.8263158 C74.3338025,54.7775395 74.190513,54.7287632 74.0686446,54.6799868 C73.9467762,54.6251316 73.8492236,54.5763553 73.7761315,54.5338026 L74.1143814,53.5921447 C74.2789472,53.6834737 74.5014078,53.7749474 74.781763,53.8664211 C75.0619736,53.95775 75.4003683,54.0034868 75.796513,54.0034868 Z" id="Path" fill-rule="nonzero"></path>
                    <path d="M80.5049472,51.6905921 C80.5049472,52.0379605 80.5476446,52.3549342 80.6328946,52.6413684 C80.7182893,52.9217237 80.8401578,53.1624211 80.9986446,53.3636053 C81.1632104,53.5585658 81.3612104,53.7109737 81.5927893,53.8206842 C81.8243683,53.9303947 82.0864867,53.98525 82.3789999,53.98525 C82.6654341,53.98525 82.924513,53.9303947 83.156092,53.8206842 C83.3876709,53.7109737 83.5827762,53.5585658 83.741263,53.3636053 C83.9056841,53.1624211 84.0307367,52.9217237 84.1159867,52.6413684 C84.2013814,52.3549342 84.2439341,52.0379605 84.2439341,51.6905921 C84.2439341,51.3432237 84.2013814,51.0292895 84.1159867,50.7489342 C84.0307367,50.4625 83.9056841,50.2218026 83.741263,50.0266974 C83.5827762,49.8256579 83.3876709,49.6702105 83.156092,49.5605 C82.924513,49.4507895 82.6654341,49.3959342 82.3789999,49.3959342 C82.0864867,49.3959342 81.8243683,49.4507895 81.5927893,49.5605 C81.3612104,49.6702105 81.1632104,49.8256579 80.9986446,50.0266974 C80.8401578,50.2278816 80.7182893,50.468579 80.6328946,50.7489342 C80.5476446,51.0292895 80.5049472,51.3432237 80.5049472,51.6905921 Z M85.4507499,51.6905921 C85.4507499,52.2330658 85.3683946,52.7114211 85.2039735,53.1259474 C85.0454867,53.5403289 84.8260656,53.8876974 84.5457104,54.1680526 C84.2714341,54.4423289 83.9483814,54.6495921 83.5766972,54.7896974 C83.2048683,54.9299474 82.8087235,55 82.3881183,55 C81.9676578,55 81.5684735,54.9299474 81.1905656,54.7896974 C80.8187367,54.6495921 80.4927893,54.4423289 80.2124341,54.1680526 C79.9381578,53.8876974 79.7187367,53.5403289 79.5541709,53.1259474 C79.3896051,52.7114211 79.3073946,52.2330658 79.3073946,51.6905921 C79.3073946,51.1481184 79.3896051,50.6728026 79.5541709,50.2645 C79.7187367,49.8499737 79.9411972,49.5026053 80.2215525,49.22225 C80.5079867,48.9418947 80.8371183,48.7315921 81.2088025,48.5914869 C81.5806314,48.4512369 81.9737367,48.3811842 82.3881183,48.3811842 C82.8026446,48.3811842 83.1957499,48.4512369 83.5674341,48.5914869 C83.939263,48.7315921 84.2623156,48.9418947 84.536592,49.22225 C84.8169472,49.5026053 85.0394077,49.8499737 85.2039735,50.2645 C85.3683946,50.6728026 85.4507499,51.1481184 85.4507499,51.6905921 Z" id="Shape" fill-rule="nonzero"></path>
                    <polygon id="Path" fill-rule="nonzero" points="91.0843419 53.8664211 91.0843419 54.8627895 87.0800525 54.8627895 87.0800525 48.5275132 88.232013 48.5275132 88.232013 53.8664211"></polygon>
                    <path d="M94.6273551,55 C94.1945919,55 93.822763,54.9390658 93.512013,54.8171974 C93.2011183,54.6891053 92.942184,54.5123816 92.7349209,54.2868816 C92.5337367,54.0613816 92.384513,53.7962237 92.2869604,53.4915526 C92.1894077,53.1868816 92.1406314,52.8516711 92.1406314,52.4859211 L92.1406314,48.5275132 L93.3017104,48.5275132 L93.3017104,52.3762105 C93.3017104,52.6626447 93.3321051,52.9095658 93.393184,53.1166842 C93.4601972,53.3178684 93.5515262,53.4824342 93.6673156,53.6103816 C93.7893288,53.7383289 93.929434,53.8328421 94.0879209,53.8937763 C94.2524867,53.9547105 94.4352893,53.98525 94.6364735,53.98525 C94.837513,53.98525 95.0204604,53.9547105 95.1848814,53.8937763 C95.3494472,53.8328421 95.4896972,53.7383289 95.6054867,53.6103816 C95.7273551,53.4824342 95.8188288,53.3178684 95.879763,53.1166842 C95.9467761,52.9095658 95.9803551,52.6626447 95.9803551,52.3762105 L95.9803551,48.5275132 L97.1412893,48.5275132 L97.1412893,52.4859211 C97.1412893,52.8516711 97.0894735,53.1868816 96.9859867,53.4915526 C96.888434,53.7962237 96.7360261,54.0613816 96.528763,54.2868816 C96.3277235,54.5123816 96.0686446,54.6891053 95.7518156,54.8171974 C95.4348419,54.9390658 95.0599735,55 94.6273551,55 Z" id="Path" fill-rule="nonzero"></path>
                    <polygon id="Path" fill-rule="nonzero" points="103.395658 48.5275132 103.395658 49.5238816 101.448368 49.5238816 101.448368 54.8627895 100.287289 54.8627895 100.287289 49.5238816 98.3401446 49.5238816 98.3401446 48.5275132"></polygon>
                    <polygon id="Path" fill-rule="nonzero" points="104.639816 48.5275132 105.791776 48.5275132 105.791776 54.8627895 104.639816 54.8627895"></polygon>
                    <path d="M108.61646,51.6905921 C108.61646,52.0379605 108.659158,52.3549342 108.744552,52.6413684 C108.829802,52.9217237 108.951671,53.1624211 109.110158,53.3636053 C109.274723,53.5585658 109.472868,53.7109737 109.704447,53.8206842 C109.936026,53.9303947 110.198145,53.98525 110.490658,53.98525 C110.777092,53.98525 111.036026,53.9303947 111.26775,53.8206842 C111.499329,53.7109737 111.694289,53.5585658 111.852776,53.3636053 C112.017342,53.1624211 112.14225,52.9217237 112.227645,52.6413684 C112.312895,52.3549342 112.355592,52.0379605 112.355592,51.6905921 C112.355592,51.3432237 112.312895,51.0292895 112.227645,50.7489342 C112.14225,50.4625 112.017342,50.2218026 111.852776,50.0266974 C111.694289,49.8256579 111.499329,49.6702105 111.26775,49.5605 C111.036026,49.4507895 110.777092,49.3959342 110.490658,49.3959342 C110.198145,49.3959342 109.936026,49.4507895 109.704447,49.5605 C109.472868,49.6702105 109.274723,49.8256579 109.110158,50.0266974 C108.951671,50.2278816 108.829802,50.468579 108.744552,50.7489342 C108.659158,51.0292895 108.61646,51.3432237 108.61646,51.6905921 Z M113.562263,51.6905921 C113.562263,52.2330658 113.480052,52.7114211 113.315487,53.1259474 C113.157,53.5403289 112.937579,53.8876974 112.657223,54.1680526 C112.382947,54.4423289 112.060039,54.6495921 111.68821,54.7896974 C111.316381,54.9299474 110.920237,55 110.499776,55 C110.079171,55 109.679987,54.9299474 109.302223,54.7896974 C108.930395,54.6495921 108.604302,54.4423289 108.323947,54.1680526 C108.049671,53.8876974 107.83025,53.5403289 107.665684,53.1259474 C107.501263,52.7114211 107.418908,52.2330658 107.418908,51.6905921 C107.418908,51.1481184 107.501263,50.6728026 107.665684,50.2645 C107.83025,49.8499737 108.05271,49.5026053 108.333066,49.22225 C108.6195,48.9418947 108.948631,48.7315921 109.32046,48.5914869 C109.692289,48.4512369 110.085395,48.3811842 110.499776,48.3811842 C110.914158,48.3811842 111.307263,48.4512369 111.679092,48.5914869 C112.050921,48.7315921 112.373829,48.9418947 112.648105,49.22225 C112.92846,49.5026053 113.150921,49.8499737 113.315487,50.2645 C113.480052,50.6728026 113.562263,51.1481184 113.562263,51.6905921 Z" id="Shape" fill-rule="nonzero"></path>
                    <path d="M119.461013,54.8627895 C119.25375,54.5154211 119.022171,54.1437368 118.766131,53.7475921 C118.510237,53.3452237 118.245079,52.943 117.970802,52.5407763 C117.696526,52.1324737 117.416171,51.7393684 117.129737,51.3614605 C116.849381,50.9774737 116.581329,50.6331447 116.325289,50.3284737 L116.325289,54.8627895 L115.19171,54.8627895 L115.19171,48.5275132 L116.133368,48.5275132 C116.377105,48.7834079 116.639223,49.0882237 116.919579,49.4416711 C117.199934,49.7890395 117.480289,50.15175 117.7605,50.5295132 C118.047079,50.9074211 118.32121,51.2883684 118.583329,51.6723553 C118.851526,52.0501184 119.089184,52.4037105 119.296447,52.7328421 L119.296447,48.5275132 L120.439145,48.5275132 L120.439145,54.8627895 L119.461013,54.8627895 Z" id="Path" fill-rule="nonzero"></path>
                    <path d="M123.860434,54.0034868 C124.274816,54.0034868 124.576592,53.9334342 124.765473,53.7931842 C124.954355,53.6530789 125.048868,53.4549342 125.048868,53.1990395 C125.048868,53.0466316 125.015289,52.9156447 124.948276,52.8059342 C124.887342,52.6962237 124.796013,52.5986711 124.674,52.5134211 C124.55821,52.4219474 124.415066,52.3397368 124.244421,52.2665 C124.073776,52.187329 123.878671,52.1110526 123.65925,52.0379605 C123.439829,51.9587895 123.226631,51.8733947 123.019368,51.7820658 C122.818184,51.6845132 122.638421,51.5656842 122.479934,51.4254342 C122.327671,51.285329 122.202618,51.1177237 122.10521,50.9226184 C122.013737,50.7276579 121.968,50.4930395 121.968,50.2187632 C121.968,49.6458947 122.166145,49.1979342 122.562289,48.8748816 C122.958434,48.54575 123.497723,48.3811842 124.180447,48.3811842 C124.576592,48.3811842 124.927,48.4269211 125.231671,48.51825 C125.542566,48.6036447 125.786302,48.6981579 125.963026,48.8017895 L125.606539,49.7341842 C125.399276,49.6183947 125.170737,49.5299605 124.920921,49.4690263 C124.677039,49.4080921 124.424184,49.3776974 124.162066,49.3776974 C123.851316,49.3776974 123.607434,49.4416711 123.43071,49.5696184 C123.260066,49.6975658 123.174816,49.8774737 123.174816,50.1090526 C123.174816,50.2491579 123.202171,50.3710263 123.257026,50.4746579 C123.31796,50.5722105 123.400316,50.6606447 123.503947,50.7398158 C123.613513,50.8189868 123.738566,50.8922237 123.878671,50.9592368 C124.025,51.02625 124.183487,51.0902237 124.354131,51.1511579 C124.652723,51.2608684 124.917881,51.3736184 125.14946,51.4894079 C125.387118,51.5991184 125.585263,51.7332895 125.743605,51.8917763 C125.908171,52.0440395 126.033223,52.2269868 126.118473,52.4401842 C126.203868,52.6474474 126.246421,52.9003026 126.246421,53.1990395 C126.246421,53.7719079 126.042342,54.2168289 125.633895,54.5338026 C125.231671,54.8445526 124.640566,55 123.860434,55 C123.598316,55 123.357618,54.9817632 123.138197,54.9451447 C122.924855,54.9146053 122.732934,54.8750921 122.562289,54.8263158 C122.397723,54.7775395 122.254434,54.7287632 122.132566,54.6799868 C122.010697,54.6251316 121.913145,54.5763553 121.840052,54.5338026 L122.178302,53.5921447 C122.342868,53.6834737 122.565329,53.7749474 122.845684,53.8664211 C123.126039,53.95775 123.464289,54.0034868 123.860434,54.0034868 Z" id="Path" fill-rule="nonzero"></path>
                </g>
            </g>
        </g>
    </g>
</svg>