<?xml version="1.0" encoding="UTF-8"?>
<svg width="281px" height="115px" viewBox="0 0 281 115" version="1.1" xmlns="http://www.w3.org/2000/svg" xmlns:xlink="http://www.w3.org/1999/xlink">
    <title>9BE360E0-C6D2-45AD-97A3-B47E8BEF9D9A</title>
    <defs>
        <filter x="-3.9%" y="-11.0%" width="107.8%" height="122.1%" filterUnits="objectBoundingBox" id="filter-1">
            <feOffset dx="0" dy="2" in="SourceAlpha" result="shadowOffsetOuter1"></feOffset>
            <feGaussianBlur stdDeviation="12" in="shadowOffsetOuter1" result="shadowBlurOuter1"></feGaussianBlur>
            <feColorMatrix values="0 0 0 0 0.846283794   0 0 0 0 0.852688215   0 0 0 0 0.91236413  0 0 0 0.5 0" type="matrix" in="shadowBlurOuter1" result="shadowMatrixOuter1"></feColorMatrix>
            <feMerge>
                <feMergeNode in="shadowMatrixOuter1"></feMergeNode>
                <feMergeNode in="SourceGraphic"></feMergeNode>
            </feMerge>
        </filter>
    </defs>
    <g id="Page-1" stroke="none" stroke-width="1" fill="none" fill-rule="evenodd">
        <g id="HR-Integration--Job-Fair" transform="translate(-92.000000, -886.000000)" fill="#3978FC">
            <g id="Group-10" filter="url(#filter-1)" transform="translate(80.000000, 835.000000)">
                <g id="qb-logo-blog" transform="translate(49.000000, 88.000000)">
                    <path d="M51.25,18.2222222 C51.25,17.1191419 51.4489958,16.0841243 51.8469933,15.1171384 C52.2449909,14.1501524 52.7905138,13.3049477 53.4835785,12.581499 C54.1766432,11.8580502 54.9863501,11.2886114 55.9127237,10.8731656 C56.8390973,10.4577198 57.8306453,10.25 58.8873974,10.25 C59.9441495,10.25 60.9356974,10.4577198 61.862071,10.8731656 C62.7884446,11.2886114 63.5981516,11.8580502 64.2912163,12.581499 C64.9842809,13.3049477 65.5298039,14.1501524 65.9278014,15.1171384 C66.3257989,16.0841243 66.5247947,17.1191419 66.5247947,18.2222222 C66.5247947,19.1390682 66.3841253,20.0057611 66.1027822,20.822327 C65.8214391,21.638893 65.4406024,22.3838191 64.9602605,23.0571279 L66.2160051,24.3679245 L64.7955727,25.8506289 L63.5398281,24.5398323 C62.8810736,25.0555581 62.1605716,25.4602536 61.3783005,25.7539308 C60.5960295,26.047608 59.7657368,26.1944444 58.8873974,26.1944444 C57.8306453,26.1944444 56.8390973,25.9867246 55.9127237,25.5712788 C54.9863501,25.155833 54.1766432,24.5863943 53.4835785,23.8629455 C52.7905138,23.1394967 52.2449909,22.294292 51.8469933,21.3273061 C51.4489958,20.3603201 51.25,19.3253025 51.25,18.2222222 Z M53.3085977,18.2222222 C53.3085977,19.0244624 53.4526981,19.7801327 53.7409032,20.4892558 C54.0291083,21.1983788 54.4270999,21.8179568 54.9348898,22.3480084 C55.4426798,22.87806 56.0362362,23.2934995 56.7155768,23.5943396 C57.3949174,23.8951797 58.1188504,24.0455975 58.8873974,24.0455975 C59.4775316,24.0455975 60.0402094,23.9560631 60.5754475,23.7769916 C61.1106855,23.5979201 61.604744,23.3436425 62.0576378,23.0141509 L60.8224792,21.7033543 L62.2223256,20.2206499 L63.4780702,21.5314465 C63.7937234,21.0730236 64.0373217,20.5644682 64.2088723,20.0057652 C64.380423,19.4470622 64.4661971,18.8525538 64.4661971,18.2222222 C64.4661971,17.419982 64.3186657,16.6643117 64.0235986,15.9551887 C63.7285314,15.2460656 63.3305398,14.630069 62.8296119,14.1071803 C62.328684,13.5842916 61.7385585,13.168852 61.0592179,12.8608491 C60.3798773,12.5528461 59.6559443,12.398847 58.8873974,12.398847 C58.1188504,12.398847 57.3949174,12.5528461 56.7155768,12.8608491 C56.0362362,13.168852 55.4426798,13.5842916 54.9348898,14.1071803 C54.4270999,14.630069 54.0291083,15.2460656 53.7409032,15.9551887 C53.4526981,16.6643117 53.3085977,17.419982 53.3085977,18.2222222 Z M83.4052956,10.5938155 L85.4638933,10.5938155 L85.4638933,19.7908805 C85.4638933,20.679075 85.3026381,21.5099542 84.9801229,22.283543 C84.6576076,23.0571318 84.2184445,23.7340118 83.6626204,24.3142034 C83.1067962,24.8943949 82.4549135,25.352811 81.7069526,25.6894654 C80.9589917,26.0261198 80.1664395,26.1944444 79.3292723,26.1944444 C78.478381,26.1944444 77.6823978,26.0261198 76.941299,25.6894654 C76.2002001,25.352811 75.5517483,24.8943949 74.9959242,24.3142034 C74.4401,23.7340118 74.0009369,23.0571318 73.6784216,22.283543 C73.3559064,21.5099542 73.1946512,20.679075 73.1946512,19.7908805 L73.1946512,10.5938155 L75.2532489,10.5938155 L75.2532489,19.7908805 C75.2532489,20.3782349 75.3596087,20.9297668 75.5723315,21.4454927 C75.7850543,21.9612185 76.0766861,22.4124719 76.4472355,22.7992662 C76.8177849,23.1860606 77.2500861,23.4904776 77.744152,23.7125262 C78.238218,23.9345748 78.7665861,24.0455975 79.3292723,24.0455975 C79.8919584,24.0455975 80.4203266,23.9345748 80.9143925,23.7125262 C81.4084584,23.4904776 81.8407596,23.1860606 82.211309,22.7992662 C82.5818584,22.4124719 82.8734902,21.9612185 83.086213,21.4454927 C83.2989358,20.9297668 83.4052956,20.3782349 83.4052956,19.7908805 L83.4052956,10.5938155 Z M93.0807047,10.5938155 L95.1393024,10.5938155 L95.1393024,25.8506289 L93.0807047,25.8506289 L93.0807047,10.5938155 Z M114.943012,23.9381551 C114.243085,24.6401153 113.44024,25.1916472 112.534453,25.5927673 C111.628665,25.9938874 110.661134,26.1944444 109.63183,26.1944444 C108.575078,26.1944444 107.58353,25.9867246 106.657156,25.5712788 C105.730783,25.155833 104.921076,24.5863943 104.228011,23.8629455 C103.534946,23.1394967 102.989423,22.294292 102.591426,21.3273061 C102.193428,20.3603201 101.994433,19.3253025 101.994433,18.2222222 C101.994433,17.1191419 102.193428,16.0841243 102.591426,15.1171384 C102.989423,14.1501524 103.534946,13.3049477 104.228011,12.581499 C104.921076,11.8580502 105.730783,11.2886114 106.657156,10.8731656 C107.58353,10.4577198 108.575078,10.25 109.63183,10.25 C110.674858,10.25 111.64582,10.450557 112.544746,10.8516771 C113.443671,11.2527973 114.243085,11.8043291 114.943012,12.5062893 L113.501994,14.0319706 C112.994204,13.5305705 112.41094,13.1330378 111.752186,12.8393606 C111.093431,12.5456834 110.386653,12.398847 109.63183,12.398847 C108.863283,12.398847 108.13935,12.5528461 107.460009,12.8608491 C106.780669,13.168852 106.187112,13.5842916 105.679322,14.1071803 C105.171532,14.630069 104.773541,15.2460656 104.485336,15.9551887 C104.197131,16.6643117 104.05303,17.419982 104.05303,18.2222222 C104.05303,19.0244624 104.197131,19.7801327 104.485336,20.4892558 C104.773541,21.1983788 105.171532,21.8179568 105.679322,22.3480084 C106.187112,22.87806 106.780669,23.2934995 107.460009,23.5943396 C108.13935,23.8951797 108.863283,24.0455975 109.63183,24.0455975 C110.386653,24.0455975 111.093431,23.8987611 111.752186,23.6050839 C112.41094,23.3114066 112.994204,22.9138739 113.501994,22.4124738 L114.943012,23.9381551 Z M125.462446,18.5875262 L123.506778,20.6719078 L123.506778,25.8506289 L121.448181,25.8506289 L121.448181,10.5938155 L123.506778,10.5938155 L123.506778,17.5775681 L130.073705,10.5938155 L132.955742,10.5938155 L126.903464,17.0403564 L132.955742,25.8506289 L130.403081,25.8506289 L125.462446,18.5875262 Z M139.069777,25.8506289 L139.069777,10.5938155 L146.41897,10.5938155 C146.995381,10.5938155 147.537473,10.7084195 148.045263,10.937631 C148.553053,11.1668425 148.995647,11.4784222 149.373058,11.8723795 C149.75047,12.2663367 150.048963,12.7283342 150.268548,13.2583857 C150.488133,13.7884373 150.597924,14.3542947 150.597924,14.9559748 C150.597924,15.5146778 150.501857,16.0411401 150.30972,16.5353774 C150.117583,17.0296146 149.85683,17.4701239 149.527453,17.8569182 C150.103863,18.2437126 150.567043,18.7558494 150.917006,19.3933438 C151.26697,20.0308383 151.441949,20.7363693 151.441949,21.5099581 C151.441949,22.1116382 151.332158,22.6774956 151.112573,23.2075472 C150.892988,23.7375987 150.594495,24.1960148 150.217083,24.5828092 C149.839672,24.9696036 149.397078,25.2776019 148.889288,25.5068134 C148.381498,25.7360249 147.839406,25.8506289 147.262995,25.8506289 L139.069777,25.8506289 Z M141.128374,19.2966457 L141.128374,23.701782 L147.262995,23.701782 C147.551201,23.701782 147.825678,23.64448 148.086435,23.5298742 C148.347192,23.4152685 148.573635,23.2612693 148.765772,23.0678721 C148.957908,22.8744749 149.108871,22.6416855 149.218663,22.3694969 C149.328456,22.0973082 149.383351,21.8107981 149.383351,21.5099581 C149.383351,21.209118 149.328456,20.9226079 149.218663,20.6504193 C149.108871,20.3782306 148.957908,20.1418598 148.765772,19.9412998 C148.573635,19.7407397 148.347192,19.5831592 148.086435,19.4685535 C147.825678,19.3539477 147.551201,19.2966457 147.262995,19.2966457 L141.128374,19.2966457 Z M146.41897,17.1477987 C146.707176,17.1477987 146.981652,17.0904967 147.242409,16.975891 C147.503166,16.8612852 147.72961,16.7072861 147.921747,16.5138889 C148.113883,16.3204917 148.264846,16.0877023 148.374638,15.8155136 C148.484431,15.543325 148.539326,15.2568149 148.539326,14.9559748 C148.539326,14.6551348 148.484431,14.3686247 148.374638,14.0964361 C148.264846,13.8242474 148.113883,13.5878766 147.921747,13.3873166 C147.72961,13.1867565 147.503166,13.029176 147.242409,12.9145702 C146.981652,12.7999645 146.707176,12.7426625 146.41897,12.7426625 L141.128374,12.7426625 L141.128374,17.1477987 L146.41897,17.1477987 Z M158.317665,10.5938155 L160.376263,10.5938155 L160.376263,23.701782 L169.022373,23.701782 L169.022373,25.8506289 L158.317665,25.8506289 L158.317665,10.5938155 Z M173.674804,18.2222222 C173.674804,17.1191419 173.873799,16.0841243 174.271797,15.1171384 C174.669794,14.1501524 175.215317,13.3049477 175.908382,12.581499 C176.601447,11.8580502 177.411154,11.2886114 178.337527,10.8731656 C179.263901,10.4577198 180.255449,10.25 181.312201,10.25 C182.368953,10.25 183.360501,10.4577198 184.286875,10.8731656 C185.213248,11.2886114 186.022955,11.8580502 186.71602,12.581499 C187.409085,13.3049477 187.954607,14.1501524 188.352605,15.1171384 C188.750603,16.0841243 188.949598,17.1191419 188.949598,18.2222222 C188.949598,19.3253025 188.750603,20.3603201 188.352605,21.3273061 C187.954607,22.294292 187.409085,23.1394967 186.71602,23.8629455 C186.022955,24.5863943 185.213248,25.155833 184.286875,25.5712788 C183.360501,25.9867246 182.368953,26.1944444 181.312201,26.1944444 C180.255449,26.1944444 179.263901,25.9867246 178.337527,25.5712788 C177.411154,25.155833 176.601447,24.5863943 175.908382,23.8629455 C175.215317,23.1394967 174.669794,22.294292 174.271797,21.3273061 C173.873799,20.3603201 173.674804,19.3253025 173.674804,18.2222222 Z M175.733401,18.2222222 C175.733401,19.0244624 175.877502,19.7801327 176.165707,20.4892558 C176.453912,21.1983788 176.851903,21.8179568 177.359693,22.3480084 C177.867483,22.87806 178.46104,23.2934995 179.14038,23.5943396 C179.819721,23.8951797 180.543654,24.0455975 181.312201,24.0455975 C182.080748,24.0455975 182.804681,23.8951797 183.484022,23.5943396 C184.163362,23.2934995 184.753488,22.87806 185.254416,22.3480084 C185.755343,21.8179568 186.153335,21.1983788 186.448402,20.4892558 C186.743469,19.7801327 186.891001,19.0244624 186.891001,18.2222222 C186.891001,17.419982 186.743469,16.6643117 186.448402,15.9551887 C186.153335,15.2460656 185.755343,14.630069 185.254416,14.1071803 C184.753488,13.5842916 184.163362,13.168852 183.484022,12.8608491 C182.804681,12.5528461 182.080748,12.398847 181.312201,12.398847 C180.543654,12.398847 179.819721,12.5528461 179.14038,12.8608491 C178.46104,13.168852 177.867483,13.5842916 177.359693,14.1071803 C176.851903,14.630069 176.453912,15.2460656 176.165707,15.9551887 C175.877502,16.6643117 175.733401,17.419982 175.733401,18.2222222 Z M199.880752,16.3527254 L203.668572,10.5938155 L206.138889,10.5938155 L201.115911,18.2222222 L206.138889,25.8506289 L203.668572,25.8506289 L199.880752,20.1132075 L196.092932,25.8506289 L193.622615,25.8506289 L198.645593,18.2222222 L193.622615,10.5938155 L196.092932,10.5938155 L199.880752,16.3527254 Z" id="QUICKBLOX" fill-rule="nonzero"></path>
                    <g id="logo_qb-3">
                        <rect id="Rectangle-4-Copy" x="27.3333333" y="13.6666667" width="10.3144654" height="10.3144654" rx="5.1572327"></rect>
                        <rect id="Rectangle-4-Copy-2" x="27.3333333" y="0" width="10.3144654" height="10.3144654" rx="5.1572327"></rect>
                        <rect id="Rectangle-4-Copy-3" x="13.6666667" y="0" width="10.3144654" height="10.3144654" rx="5.1572327"></rect>
                        <rect id="Rectangle-4-Copy-4" x="0" y="0" width="10.3144654" height="10.3144654" rx="5.1572327"></rect>
                        <rect id="Rectangle-4-Copy-5" x="0" y="13.6666667" width="10.3144654" height="10.3144654" rx="5.1572327"></rect>
                        <rect id="Rectangle-4-Copy-6" x="0" y="27.3333333" width="10.3144654" height="10.3144654" rx="5.1572327"></rect>
                        <rect id="Rectangle-4-Copy-7" x="13.6666667" y="27.3333333" width="10.3144654" height="10.3144654" rx="5.1572327"></rect>
                        <rect id="Rectangle-4" x="27.3333333" y="27.3333333" width="13.6666667" height="13.6666667" rx="6.83333333"></rect>
                    </g>
                </g>
            </g>
        </g>
    </g>
</svg>