<svg viewBox="0 0 44 44" xmlns="http://www.w3.org/2000/svg">
  <path d="M21.9999 10.8167C24.1266 10.8167 25.8499 12.54 25.8499 14.6667C25.8499 16.7934 24.1266 18.5167 21.9999 18.5167C19.8733 18.5167 18.1499 16.7934 18.1499 14.6667C18.1499 12.54 19.8733 10.8167 21.9999 10.8167ZM21.9999 27.3167C27.4449 27.3167 33.1833 29.9934 33.1833 31.1667V33.1834H10.8166V31.1667C10.8166 29.9934 16.5549 27.3167 21.9999 27.3167ZM21.9999 7.33337C17.9483 7.33337 14.6666 10.615 14.6666 14.6667C14.6666 18.7184 17.9483 22 21.9999 22C26.0516 22 29.3333 18.7184 29.3333 14.6667C29.3333 10.615 26.0516 7.33337 21.9999 7.33337ZM21.9999 23.8334C17.1049 23.8334 7.33325 26.29 7.33325 31.1667V36.6667H36.6666V31.1667C36.6666 26.29 26.8949 23.8334 21.9999 23.8334Z"/>
</svg>
