<svg viewBox="0 0 44 44" xmlns="http://www.w3.org/2000/svg">
  <path d="M34.9635 19.4074L20.0553 34.3155C17.1904 37.1805 12.5494 37.1805 9.68442 34.3155C6.81946 31.4506 6.81946 26.8096 9.68442 23.9446L25.889 7.7401C27.6779 5.95112 30.5818 5.95112 32.3708 7.7401C34.1597 9.52908 34.1597 12.4329 32.3708 14.2219L18.759 27.8337C18.046 28.5467 16.8792 28.5467 16.1662 27.8337C15.4532 27.1207 15.4532 25.954 16.1662 25.241L28.4817 12.9255L26.5371 10.981L14.2217 23.2964C12.4327 25.0854 12.4327 27.9893 14.2217 29.7783C16.0107 31.5672 18.9145 31.5672 20.7035 29.7783L34.3153 16.1665C37.1803 13.3015 37.1803 8.66052 34.3153 5.79556C31.4503 2.93059 26.8094 2.93059 23.9444 5.79556L7.73988 22.0001C3.79894 25.941 3.79894 32.3191 7.73988 36.2601C11.6808 40.201 18.0589 40.201 21.9999 36.2601L36.908 21.3519L34.9635 19.4074Z"/>
</svg>
