<svg viewBox="0 0 18 19" xmlns="http://www.w3.org/2000/svg">
  <path
    d="M17.016 18.5C17.288 18.5 17.52 18.404 17.712 18.212 17.904 18.02 18 17.788 18 17.516V17.516 13.988C18 13.716 17.904 13.484 17.712 13.292 17.52 13.1 17.288 13.004 17.016 13.004 15.704 13.004 14.52 12.82 13.464 12.452 13.288 12.372 13.104 12.356 12.912 12.404 12.72 12.452 12.56 12.548 12.432 12.692L10.224 14.9C8.816 14.164 7.544 13.228 6.408 12.092 5.272 10.956 4.336 9.684 3.6 8.276V8.276L5.808 6.068C5.952 5.94 6.04 5.78 6.072 5.588 6.104 5.396 6.096 5.212 6.048 5.036 5.68 3.98 5.496 2.796 5.496 1.484 5.496 1.212 5.4.98 5.208.788 5.016.596 4.784.5 4.512.5V.5H.984C.712.5 .48.596 .288.788 .096.98 0 1.212 0 1.484 0 3.788.448 5.996 1.344 8.108 2.208 10.14 3.424 11.94 4.992 13.508 6.56 15.076 8.36 16.292 10.392 17.156 12.504 18.052 14.712 18.5 17.016 18.5Z" />
</svg>
