<svg viewBox="0 0 19 20" xmlns="http://www.w3.org/2000/svg">
  <path
    d="M17.72 19.492 18.992 18.22 1.28.508 .008 1.78 2.72 4.492H1.976C1.704 4.492 1.472 4.588 1.28 4.78 1.088 4.972.992 5.204.992 5.476V5.476 15.508C.992 15.78 1.088 16.012 1.28 16.204 1.472 16.396 1.704 16.492 1.976 16.492H13.976C14.168 16.492 14.36 16.428 14.552 16.3V16.3L17.72 19.492ZM18.992 15.7V4.996L15.008 8.98V5.476C15.008 5.204 14.908 4.972 14.708 4.78 14.508 4.588 14.264 4.492 13.976 4.492V4.492H7.784L18.992 15.7Z" />
</svg>
