<svg viewBox="0 0 20 17" xmlns="http://www.w3.org/2000/svg">
  <g stroke="none" stroke-width="1" fill="#000000" fill-rule="evenodd">
    <g transform="translate(-12.000000, -21.000000)" fill-rule="nonzero">
      <g transform="translate(8.000000, 15.000000)">
        <g transform="translate(0.000000, 1.000000)">
          <path
            d="M11,11.616 C11.528,11.616 12.024,11.48 12.488,11.208 C12.952,10.936 13.32,10.568 13.592,10.104 C13.864,9.64 14,9.144 14,8.616 C14,8.088 13.864,7.592 13.592,7.128 C13.32,6.664 12.952,6.296 12.488,6.024 C12.024,5.752 11.528,5.616 11,5.616 C10.472,5.616 9.976,5.752 9.512,6.024 C9.048,6.296 8.68,6.664 8.408,7.128 C8.136,7.592 8,8.088 8,8.616 C8,9.144 8.136,9.64 8.408,10.104 C8.68,10.568 9.048,10.936 9.512,11.208 C9.976,11.48 10.472,11.616 11,11.616 Z M18.512,12.6 C18.944,12.6 19.352,12.484 19.736,12.252 C20.12,12.02 20.424,11.716 20.648,11.34 C20.872,10.964 20.984,10.552 20.984,10.104 C20.984,9.656 20.872,9.24 20.648,8.856 C20.424,8.472 20.124,8.164 19.748,7.932 C19.372,7.7 18.96,7.584 18.512,7.584 C18.064,7.584 17.648,7.7 17.264,7.932 C16.88,8.164 16.576,8.472 16.352,8.856 C16.128,9.24 16.016,9.656 16.016,10.104 C16.016,10.552 16.128,10.968 16.352,11.352 C16.576,11.736 16.88,12.04 17.264,12.264 C17.648,12.488 18.064,12.6 18.512,12.6 Z M11,21.584 L11,17.328 C11,16.768 11.144,16.224 11.432,15.696 C11.832,14.976 12.488,14.368 13.4,13.872 C12.52,13.68 11.72,13.584 11,13.584 C10.136,13.584 9.184,13.712 8.144,13.968 C6.976,14.272 6.032,14.664 5.312,15.144 C4.448,15.72 4.016,16.368 4.016,17.088 L4.016,21.584 L11,21.584 Z M23.984,21.584 L23.984,17.328 C23.984,16.768 23.648,16.264 22.976,15.816 C22.4,15.448 21.656,15.144 20.744,14.904 C19.928,14.712 19.184,14.616 18.512,14.616 C17.824,14.616 17.072,14.712 16.256,14.904 C15.344,15.144 14.6,15.448 14.024,15.816 C13.352,16.264 13.016,16.768 13.016,17.328 L13.016,21.584 L23.984,21.584 Z"
          />
        </g>
      </g>
    </g>
  </g>
</svg>
