<svg viewBox="0 0 28 28" xmlns="http://www.w3.org/2000/svg">
  <path
    d="M14,22.32 C15.52,22.32 16.9266667,21.94 18.22,21.18 C19.4733333,20.46 20.46,19.4733333 21.18,18.22 C21.94,16.9266667 22.32,15.52 22.32,14 C22.32,12.48 21.94,11.0733333 21.18,9.78 C20.46,8.52666667 19.4733333,7.54 18.22,6.82 C16.9266667,6.06 15.52,5.68 14,5.68 C12.4933333,5.68 11.0933333,6.06 9.8,6.82 C8.54666667,7.55333333 7.55333333,8.54666667 6.82,9.8 C6.06,11.0933333 5.68,12.4933333 5.68,14 C5.68,15.5066667 6.06,16.9066667 6.82,18.2 C7.54,19.4533333 8.52666667,20.4466667 9.78,21.18 C11.0733333,21.94 12.48,22.32 14,22.32 Z M15.6,10.68 L12.4,10.68 C12.7466667,9.52 13.28,8.41333333 14,7.36 C14.76,8.46666667 15.2933333,9.57333333 15.6,10.68 L15.6,10.68 Z M10.68,10.68 L8.22,10.68 C8.60666667,10 9.12,9.39666667 9.76,8.87 C10.4,8.34333333 11.1,7.95333333 11.86,7.7 C11.3533333,8.60666667 10.96,9.6 10.68,10.68 L10.68,10.68 Z M19.78,10.68 L17.32,10.68 C17.04,9.6 16.6466667,8.60666667 16.14,7.7 C16.9,7.95333333 17.6,8.34333333 18.24,8.87 C18.88,9.39666667 19.3933333,10 19.78,10.68 L19.78,10.68 Z M20.44,15.68 L17.64,15.68 C17.72,15.1333333 17.76,14.57 17.76,13.99 C17.76,13.41 17.72,12.8533333 17.64,12.32 L17.64,12.32 L20.44,12.32 C20.6,13.04 20.68,13.6 20.68,14 C20.68,14.4 20.6,14.96 20.44,15.68 L20.44,15.68 Z M15.96,15.68 L12.04,15.68 C11.9733333,15.2266667 11.94,14.6666667 11.94,14 C11.94,13.3333333 11.9733333,12.7733333 12.04,12.32 L12.04,12.32 L15.96,12.32 C16.04,12.8533333 16.08,13.41 16.08,13.99 C16.08,14.57 16.04,15.1333333 15.96,15.68 L15.96,15.68 Z M10.36,15.68 L7.56,15.68 C7.4,14.96 7.32,14.4 7.32,14 C7.32,13.6 7.4,13.04 7.56,12.32 L7.56,12.32 L10.36,12.32 C10.2933333,12.92 10.26,13.48 10.26,14 C10.26,14.52 10.2933333,15.08 10.36,15.68 L10.36,15.68 Z M16.14,20.28 C16.6333333,19.4 17.0266667,18.4133333 17.32,17.32 L17.32,17.32 L19.78,17.32 C19.38,18 18.8633333,18.6 18.23,19.12 C17.5966667,19.64 16.9,20.0266667 16.14,20.28 Z M14,20.64 C13.28,19.5866667 12.7466667,18.48 12.4,17.32 L12.4,17.32 L15.6,17.32 C15.2933333,18.4266667 14.76,19.5333333 14,20.64 Z M11.86,20.28 C11.1,20.0266667 10.4033333,19.64 9.77,19.12 C9.13666667,18.6 8.62,18 8.22,17.32 L8.22,17.32 L10.68,17.32 C10.9733333,18.4133333 11.3666667,19.4 11.86,20.28 Z" />
</svg>
