<svg viewBox="0 0 15 4" xmlns="http://www.w3.org/2000/svg">
  <path
    d="M7.5 3.68C7.953 3.68 8.347 3.513 8.68 3.18 9.013 2.847 9.18 2.453 9.18 2 9.18 1.547 9.013 1.153 8.68.82 8.347.487 7.953.32 7.5.32 7.047.32 6.653.487 6.32.82 5.987 1.153 5.82 1.547 5.82 2 5.82 2.453 5.987 2.847 6.32 3.18 6.653 3.513 7.047 3.68 7.5 3.68ZM12.5 3.68C12.953 3.68 13.347 3.513 13.68 3.18 14.013 2.847 14.18 2.453 14.18 2 14.18 1.547 14.013 1.153 13.68.82 13.347.487 12.953.32 12.5.32 12.047.32 11.653.487 11.32.82 10.987 1.153 10.82 1.547 10.82 2 10.82 2.453 10.987 2.847 11.32 3.18 11.653 3.513 12.047 3.68 12.5 3.68ZM2.5 3.68C2.953 3.68 3.347 3.513 3.68 3.18 4.013 2.847 4.18 2.453 4.18 2 4.18 1.547 4.013 1.153 3.68.82 3.347.487 2.953.32 2.5.32 2.047.32 1.653.487 1.32.82 .987 1.153.82 1.547.82 2 .82 2.453.987 2.847 1.32 3.18 1.653 3.513 2.047 3.68 2.5 3.68Z" />
</svg>
