<svg viewBox="0 0 16 16" xmlns="http://www.w3.org/2000/svg">
  <g transform="translate(-342, -128)">
    <g transform="translate(320, 77)">
      <g transform="translate(15, 44)">
        <path
          d="M20.82,22.08 L22.08,20.82 L17.94,16.68 L17.26,16.68 L17.04,16.44 C17.4533333,15.9733333 17.77,15.4366667 17.99,14.83 C18.21,14.2233333 18.32,13.5866667 18.32,12.92 C18.32,11.9333333 18.0833333,11.0266667 17.61,10.2 C17.1366667,9.37333333 16.4933333,8.72 15.68,8.24 C14.84,7.74666667 13.9266667,7.5 12.94,7.5 C11.9533333,7.5 11.0433333,7.74 10.21,8.22 C9.37666667,8.7 8.71666667,9.35666667 8.23,10.19 C7.74333333,11.0233333 7.5,11.9333333 7.5,12.92 C7.5,13.9066667 7.74666667,14.82 8.24,15.66 C8.72,16.4733333 9.37666667,17.12 10.21,17.6 C11.0433333,18.08 11.9533333,18.32 12.94,18.32 C13.5933333,18.32 14.2233333,18.21 14.83,17.99 C15.4366667,17.77 15.9733333,17.4533333 16.44,17.04 L16.44,17.04 L16.68,17.26 L16.68,17.92 L20.82,22.08 Z M12.94,16.68 C12.26,16.68 11.6333333,16.51 11.06,16.17 C10.4866667,15.83 10.03,15.3733333 9.69,14.8 C9.35,14.2266667 9.18,13.6 9.18,12.92 C9.18,12.24 9.35,11.6133333 9.69,11.04 C10.03,10.4666667 10.4866667,10.0133333 11.06,9.68 C11.6333333,9.34666667 12.26,9.18 12.94,9.18 C13.62,9.18 14.2466667,9.34666667 14.82,9.68 C15.3933333,10.0133333 15.8466667,10.4666667 16.18,11.04 C16.5133333,11.6133333 16.68,12.24 16.68,12.92 C16.68,13.6 16.5133333,14.2266667 16.18,14.8 C15.8466667,15.3733333 15.3933333,15.83 14.82,16.17 C14.2466667,16.51 13.62,16.68 12.94,16.68 Z">
        </path>
      </g>
    </g>
  </g>
</svg>
