<svg viewBox="0 0 44 44" xmlns="http://www.w3.org/2000/svg">
  <path d="M36.6667 28.4167C34.375 28.4167 32.175 28.05 30.1217 27.3717C29.48 27.17 28.765 27.3167 28.2517 27.8117L24.2183 31.845C19.03 29.205 14.7767 24.97 12.1367 19.7633L16.17 15.7117C16.6833 15.235 16.83 14.52 16.6283 13.8783C15.95 11.825 15.5833 9.625 15.5833 7.33333C15.5833 6.325 14.7583 5.5 13.75 5.5H7.33333C6.325 5.5 5.5 6.325 5.5 7.33333C5.5 24.5483 19.4517 38.5 36.6667 38.5C37.675 38.5 38.5 37.675 38.5 36.6667V30.25C38.5 29.2417 37.675 28.4167 36.6667 28.4167ZM34.8333 22H38.5C38.5 12.8883 31.1117 5.5 22 5.5V9.16667C29.095 9.16667 34.8333 14.905 34.8333 22ZM27.5 22H31.1667C31.1667 16.94 27.06 12.8333 22 12.8333V16.5C25.0433 16.5 27.5 18.9567 27.5 22Z"/>
</svg>
