<svg viewBox="0 0 46 46" xmlns="http://www.w3.org/2000/svg">
  <path d="M28.7124 36.5808L30.5551 39.7871C28.7861 40.5979 26.8513 41.1323 24.8427 41.335V37.6127C26.2063 37.4468 27.4962 37.0967 28.7124 36.5808ZM8.38728 24.8427H4.665C4.8677 26.8697 5.40209 28.7861 6.21288 30.5551L9.4192 28.7124C8.90324 27.4962 8.55313 26.2063 8.38728 24.8427ZM28.7124 9.41918L30.5551 6.21286C28.7861 5.40206 26.8697 4.86768 24.8427 4.66498V8.38726C26.2063 8.5531 27.4962 8.90322 28.7124 9.41918ZM37.6127 21.1573H41.335C41.1323 19.1303 40.5979 17.2139 39.7871 15.4449L36.5808 17.2876C37.0968 18.5038 37.4469 19.7937 37.6127 21.1573ZM17.2876 36.5808L15.4449 39.7871C17.2139 40.5979 19.1487 41.1323 21.1573 41.335V37.6127C19.7937 37.4468 18.5038 37.0967 17.2876 36.5808ZM21.1573 8.38726V4.66498C19.1303 4.86768 17.2139 5.40206 15.4449 6.21286L17.2876 9.41918C18.5038 8.90322 19.7937 8.5531 21.1573 8.38726ZM34.7197 14.0997L37.926 12.2385C36.7651 10.6354 35.3462 9.21648 33.743 8.05557L31.8819 11.2619C32.9691 12.0911 33.9089 13.0309 34.7197 14.0997ZM9.4192 17.2876L6.21288 15.4449C5.40209 17.2139 4.8677 19.1303 4.665 21.1573H8.38728C8.55313 19.7937 8.90324 18.5038 9.4192 17.2876ZM37.6127 24.8427C37.4469 26.2063 37.0968 27.4962 36.5808 28.7124L39.7871 30.5551C40.5979 28.7861 41.1323 26.8512 41.335 24.8427H37.6127ZM31.9003 34.7196L33.7614 37.926C35.3646 36.765 36.7835 35.3462 37.9444 33.743L34.7381 31.8819C33.9089 32.9691 32.9691 33.9088 31.9003 34.7196ZM14.0997 11.2803L12.257 8.05557C10.6354 9.23491 9.23493 10.6354 8.07402 12.257L11.2803 14.1181C12.0911 13.0309 13.0309 12.0911 14.0997 11.2803ZM11.2803 31.9003L8.07402 33.743C9.23493 35.3462 10.6538 36.765 12.257 37.926L14.1181 34.7196C13.0309 33.9088 12.0911 32.9691 11.2803 31.9003Z"/>
</svg>
