<svg viewBox="0 0 46 46" xmlns="http://www.w3.org/2000/svg">
  <path d="M31.4158 14.8959L19.333 26.9787L12.7507 20.4147L10.1655 23L19.333 32.1675L34.001 17.4995L31.4158 14.8959ZM23 4.66498C12.8791 4.66498 4.665 12.8791 4.665 23C4.665 33.1209 12.8791 41.335 23 41.335C33.1209 41.335 41.335 33.1209 41.335 23C41.335 12.8791 33.1209 4.66498 23 4.66498ZM23 37.668C14.8959 37.668 8.332 31.104 8.332 23C8.332 14.8959 14.8959 8.33198 23 8.33198C31.1041 8.33198 37.668 14.8959 37.668 23C37.668 31.104 31.1041 37.668 23 37.668Z"/>
</svg>
