<svg viewBox="0 0 44 44" xmlns="http://www.w3.org/2000/svg">
<path d="M34.8333 12.8333C37.8709 12.8333 40.3333 10.3709 40.3333 7.33331C40.3333 4.29575 37.8709 1.83331 34.8333 1.83331C31.7957 1.83331 29.3333 4.29575 29.3333 7.33331C29.3333 10.3709 31.7957 12.8333 34.8333 12.8333Z"/>
<path d="M11 16.5V12.8333H27.555C25.3366 9.89998 25.575 6.94831 25.8683 5.49998H7.35163C5.33496 5.49998 3.68496 7.13165 3.68496 9.16665L3.66663 42.1666L11 34.8333H36.6666C38.6833 34.8333 40.3333 33.1833 40.3333 31.1666V14.6116C38.7933 15.785 36.905 16.5 34.8333 16.5H11ZM25.6666 27.5H11V23.8333H25.6666V27.5ZM33 22H11V18.3333H33V22Z"/>
</svg>
