<svg viewBox="0 0 20 20" xmlns="http://www.w3.org/2000/svg">
  <path
    d="M10.03 19.18C10.857 19.18 11.62 18.973 12.32 18.56 13.02 18.147 13.573 17.587 13.98 16.88 14.387 16.173 14.59 15.4 14.59 14.56V14.56 5H13.35V14.56C13.35 15.16 13.2 15.72 12.9 16.24 12.6 16.76 12.197 17.173 11.69 17.48 11.183 17.787 10.63 17.94 10.03 17.94 9.43 17.94 8.873 17.787 8.36 17.48 7.847 17.173 7.437 16.76 7.13 16.24 6.823 15.72 6.67 15.16 6.67 14.56V14.56 4.18C6.67 3.807 6.767 3.457 6.96 3.13 7.153 2.803 7.41 2.543 7.73 2.35 8.05 2.157 8.397 2.06 8.77 2.06 9.143 2.06 9.49 2.157 9.81 2.35 10.13 2.543 10.383 2.803 10.57 3.13 10.757 3.457 10.85 3.807 10.85 4.18V4.18 12.92C10.85 13.16 10.773 13.357 10.62 13.51 10.467 13.663 10.27 13.74 10.03 13.74 9.79 13.74 9.587 13.663 9.42 13.51 9.253 13.357 9.17 13.16 9.17 12.92V12.92 5H7.91V12.92C7.91 13.293 8.007 13.64 8.2 13.96 8.393 14.28 8.653 14.533 8.98 14.72 9.307 14.907 9.657 15 10.03 15 10.403 15 10.747 14.907 11.06 14.72 11.373 14.533 11.623 14.28 11.81 13.96 11.997 13.64 12.09 13.293 12.09 12.92V12.92 4.18C12.09 3.58 11.94 3.02 11.64 2.5 11.34 1.98 10.937 1.57 10.43 1.27 9.923.97 9.37.82 8.77.82 8.17.82 7.613.973 7.1 1.28 6.587 1.587 6.177 1.997 5.87 2.51 5.563 3.023 5.41 3.58 5.41 4.18V4.18 14.56C5.41 15.4 5.62 16.173 6.04 16.88 6.46 17.587 7.023 18.147 7.73 18.56 8.437 18.973 9.203 19.18 10.03 19.18Z" />
</svg>
