<svg viewBox="0 0 25 25" xmlns="http://www.w3.org/2000/svg">
  <path
    d="M24.5 20.516V18.5H20.516C21.06 18.5 21.524 18.3 21.908 17.9 22.292 17.5 22.484 17.028 22.484 16.484V16.484 6.5C22.484 5.94 22.292 5.464 21.908 5.072 21.524 4.68 21.06 4.484 20.516 4.484V4.484H4.484C3.924 4.484 3.456 4.68 3.08 5.072 2.704 5.464 2.516 5.94 2.516 6.5V6.5 16.484C2.516 17.028 2.704 17.5 3.08 17.9 3.456 18.3 3.924 18.5 4.484 18.5V18.5H.5V20.516H24.5ZM7.484 15.5C8.236 12.06 10.236 10.108 13.484 9.644V9.644 7.484L17.516 11.228 13.484 14.972V12.788C12.108 12.788 10.94 13.004 9.98 13.436 9.02 13.868 8.188 14.556 7.484 15.5Z" />
</svg>
