<svg xmlns="http://www.w3.org/2000/svg" xmlns:xlink="http://www.w3.org/1999/xlink" width="10px" height="13px" viewBox="0 0 10 13" version="1.1">
    <!-- Generator: sketchtool 62 (101010) - https://sketch.com -->
    <title>09C6017D-3E26-4F40-AA35-810C65A74A4E</title>
    <desc>Created with sketchtool.</desc>
    <g id="q-consult-roadmap" stroke="none" stroke-width="1">
        <g id="Provider---Work-schedule" transform="translate(-932.000000, -604.000000)" >
            <g id="Rectangle" transform="translate(421.000000, 68.000000)">
                <g id="chat" transform="translate(25.000000, 20.000000)">
                    <g id="Group">
                        <g transform="translate(10.000000, 321.000000)">
                            <path d="M486,197.166667 L486,195.710667 L483.525773,195.710667 L482.786942,195 L479.230241,195 L478.491409,195.710667 L476,195.710667 L476,197.166667 L486,197.166667 Z M483.852234,208 C484.241695,208 484.579611,207.855556 484.865979,207.566667 C485.152348,207.277778 485.295533,206.936889 485.295533,206.544 L485.295533,206.544 L485.295533,197.877333 L476.704467,197.877333 L476.704467,206.544 C476.704467,206.936889 476.847652,207.277778 477.134021,207.566667 C477.420389,207.855556 477.758305,208 478.147766,208 L478.147766,208 L483.852234,208 Z" id="delete-copy-6"/>
                        </g>
                    </g>
                </g>
            </g>
        </g>
    </g>
</svg>
