<svg viewBox="5 4 18 18" xmlns="http://www.w3.org/2000/svg">
  <path
    d="M19.82,21.5 C20.2733333,21.5 20.6666667,21.3333333 21,21 C21.3333333,20.6666667 21.5,20.2733333 21.5,19.82 L21.5,19.82 L21.5,8.18 C21.5,7.72666667 21.3333333,7.33333333 21,7 C20.6666667,6.66666667 20.2733333,6.5 19.82,6.5 L19.82,6.5 L19,6.5 L19,4.82 L17.32,4.82 L17.32,6.5 L10.68,6.5 L10.68,4.82 L9,4.82 L9,6.5 L8.18,6.5 C7.71333333,6.5 7.31666667,6.66666667 6.99,7 C6.66333333,7.33333333 6.5,7.72666667 6.5,8.18 L6.5,8.18 L6.5,19.82 C6.5,20.2733333 6.66333333,20.6666667 6.99,21 C7.31666667,21.3333333 7.71333333,21.5 8.18,21.5 L8.18,21.5 L19.82,21.5 Z M19.82,19.82 L8.18,19.82 L8.18,10.68 L19.82,10.68 L19.82,19.82 Z M18.18,18.18 L18.18,14 L14,14 L14,18.18 L18.18,18.18 Z">
  </path>
</svg>
