<svg viewBox="0 0 23 24" xmlns="http://www.w3.org/2000/svg">
  <path d="M20.2105 11.3684H18.0632C18.0632 12.3032 17.8611 13.1747 17.52 13.9579L19.0737 15.5116C19.7811 14.2737 20.2105 12.8716 20.2105 11.3684ZM15.1326 11.5832C15.1326 11.5074 15.1579 11.4442 15.1579 11.3684V3.78947C15.1579 1.69263 13.4653 0 11.3684 0C9.27158 0 7.57895 1.69263 7.57895 3.78947V4.01684L15.1326 11.5832ZM1.60421 1.26316L0 2.86737L7.59158 10.4589V11.3684C7.59158 13.4653 9.27158 15.1579 11.3684 15.1579C11.6463 15.1579 11.9242 15.12 12.1895 15.0568L14.2863 17.1537C13.3895 17.5705 12.3916 17.8105 11.3684 17.8105C7.8821 17.8105 4.67368 15.1579 4.67368 11.3684H2.52632C2.52632 15.6758 5.9621 19.2379 10.1053 19.8568V24H12.6316V19.8568C13.7811 19.6926 14.8674 19.2884 15.84 18.72L21.1326 24L22.7368 22.3958L1.60421 1.26316Z"/>
</svg>
