<svg viewBox="0 0 21 19" xmlns="http://www.w3.org/2000/svg">
  <path
    d="M18.516 18.5C19.06 18.5 19.524 18.3 19.908 17.9 20.292 17.5 20.484 17.028 20.484 16.484V16.484 4.484C20.484 3.94 20.292 3.468 19.908 3.068 19.524 2.668 19.06 2.468 18.516 2.468V2.468H15.324L13.5.5H7.5L5.676 2.468H2.484C1.94 2.468 1.476 2.668 1.092 3.068.708 3.468.516 3.94.516 4.484V4.484 16.484C.516 17.028.708 17.5 1.092 17.9 1.476 18.3 1.94 18.5 2.484 18.5H18.516ZM13.5 13.988V11.468H7.5V13.988L3.996 10.484 7.5 6.956V9.5H13.5V6.956L17.028 10.484 13.5 13.988Z" />
</svg>
