<svg viewBox="0 0 12 15" xmlns="http://www.w3.org/2000/svg">
  <g transform="translate(-1288, -27)">
    <g transform="translate(1280, 21)">
      <path
        d="M14.2122581,14 C14.9219355,14 15.5832258,13.8186667 16.196129,13.456 C16.8090323,13.0933333 17.2929032,12.608 17.6477419,12 C18.0025806,11.392 18.18,10.7253333 18.18,10 C18.18,9.27466667 18.0025806,8.608 17.6477419,8 C17.2929032,7.392 16.8090323,6.90666667 16.196129,6.544 C15.5832258,6.18133333 14.9219355,6 14.2122581,6 C13.5025806,6 12.835914,6.18133333 12.2122581,6.544 C11.5886022,6.90666667 11.0939785,7.39733333 10.7283871,8.016 C10.3627957,8.63466667 10.18,9.296 10.18,10 C10.18,10.704 10.3627957,11.3653333 10.7283871,11.984 C11.0939785,12.6026667 11.5886022,13.0933333 12.2122581,13.456 C12.835914,13.8186667 13.5025806,14 14.2122581,14 Z M20,20.82 L20,17.908 C20,17.068 19.630137,16.312 18.890411,15.64 C18.2739726,15.08 17.4657534,14.6226667 16.4657534,14.268 C15.5753425,13.9693333 14.760274,13.82 14.0205479,13.82 C13.2808219,13.82 12.4589041,13.9693333 11.5547945,14.268 C10.5547945,14.6226667 9.73972603,15.08 9.10958904,15.64 C8.36986301,16.312 8,17.068 8,17.908 L8,17.908 L8,20.82 L20,20.82 Z" />
    </g>
  </g>
</svg>
