<svg viewBox="0 0 44 44" xmlns="http://www.w3.org/2000/svg">
  <path d="M14.6666 22.0001C14.6666 19.9834 13.0166 18.3334 10.9999 18.3334C8.98325 18.3334 7.33325 19.9834 7.33325 22.0001C7.33325 24.0167 8.98325 25.6667 10.9999 25.6667C13.0166 25.6667 14.6666 24.0167 14.6666 22.0001ZM18.3333 22.0001C18.3333 24.0167 19.9833 25.6667 21.9999 25.6667C24.0166 25.6667 25.6666 24.0167 25.6666 22.0001C25.6666 19.9834 24.0166 18.3334 21.9999 18.3334C19.9833 18.3334 18.3333 19.9834 18.3333 22.0001ZM29.3333 22.0001C29.3333 24.0167 30.9833 25.6667 32.9999 25.6667C35.0166 25.6667 36.6666 24.0167 36.6666 22.0001C36.6666 19.9834 35.0166 18.3334 32.9999 18.3334C30.9833 18.3334 29.3333 19.9834 29.3333 22.0001Z"/>
</svg>
