<svg viewBox="0 0 44 44" xmlns="http://www.w3.org/2000/svg">
  <path d="M22 3.66663C11.88 3.66663 3.66666 11.88 3.66666 22C3.66666 32.12 11.88 40.3333 22 40.3333C32.12 40.3333 40.3333 32.12 40.3333 22C40.3333 11.88 32.12 3.66663 22 3.66663ZM22 9.16663C25.0433 9.16663 27.5 11.6233 27.5 14.6666C27.5 17.71 25.0433 20.1666 22 20.1666C18.9567 20.1666 16.5 17.71 16.5 14.6666C16.5 11.6233 18.9567 9.16663 22 9.16663ZM22 35.2C17.4167 35.2 13.365 32.8533 11 29.2966C11.055 25.6483 18.3333 23.65 22 23.65C25.6483 23.65 32.945 25.6483 33 29.2966C30.635 32.8533 26.5833 35.2 22 35.2Z"/>
</svg>
