<svg viewBox="0 0 44 44" xmlns="http://www.w3.org/2000/svg">
  <path d="M28.8842 26.1342H27.4359L26.9225 25.6392C28.7192 23.5492 29.8009 20.8359 29.8009 17.8842C29.8009 11.3025 24.4659 5.96753 17.8842 5.96753C11.3025 5.96753 5.96753 11.3025 5.96753 17.8842C5.96753 24.4659 11.3025 29.8009 17.8842 29.8009C20.8359 29.8009 23.5492 28.7192 25.6392 26.9225L26.1342 27.4359V28.8842L35.3009 38.0325L38.0325 35.3009L28.8842 26.1342ZM17.8842 26.1342C13.3192 26.1342 9.6342 22.4492 9.6342 17.8842C9.6342 13.3192 13.3192 9.6342 17.8842 9.6342C22.4492 9.6342 26.1342 13.3192 26.1342 17.8842C26.1342 22.4492 22.4492 26.1342 17.8842 26.1342Z"/>
</svg>
