<svg viewBox="0 0 44 44" xmlns="http://www.w3.org/2000/svg">
  <path d="M35.09 23.7234C35.1634 23.1734 35.2 22.605 35.2 22C35.2 21.4134 35.1634 20.8267 35.0717 20.2767L38.7934 17.38C39.1234 17.1234 39.215 16.6284 39.0134 16.2617L35.4934 10.175C35.2734 9.77169 34.815 9.64336 34.4117 9.77169L30.03 11.5317C29.1134 10.835 28.1417 10.2484 27.06 9.80836L26.4 5.15169C26.3267 4.71169 25.96 4.40002 25.52 4.40002H18.48C18.04 4.40002 17.6917 4.71169 17.6184 5.15169L16.9584 9.80836C15.8767 10.2484 14.8867 10.8534 13.9884 11.5317L9.6067 9.77169C9.20337 9.62502 8.74504 9.77169 8.52504 10.175L5.02337 16.2617C4.80337 16.6467 4.8767 17.1234 5.24337 17.38L8.96504 20.2767C8.87337 20.8267 8.80004 21.4317 8.80004 22C8.80004 22.5684 8.8367 23.1734 8.92837 23.7234L5.2067 26.62C4.8767 26.8767 4.78504 27.3717 4.98671 27.7384L8.5067 33.825C8.7267 34.2284 9.18504 34.3567 9.58837 34.2284L13.97 32.4684C14.8867 33.165 15.8584 33.7517 16.94 34.1917L17.6 38.8484C17.6917 39.2884 18.04 39.6 18.48 39.6H25.52C25.96 39.6 26.3267 39.2884 26.3817 38.8484L27.0417 34.1917C28.1234 33.7517 29.1134 33.165 30.0117 32.4684L34.3934 34.2284C34.7967 34.375 35.255 34.2284 35.475 33.825L38.995 27.7384C39.215 27.335 39.1234 26.8767 38.775 26.62L35.09 23.7234ZM22 28.6C18.37 28.6 15.4 25.63 15.4 22C15.4 18.37 18.37 15.4 22 15.4C25.63 15.4 28.6 18.37 28.6 22C28.6 25.63 25.63 28.6 22 28.6Z"/>
</svg>
