<svg viewBox="0 0 25 10" xmlns="http://www.w3.org/2000/svg">
  <path
    d="M21.032 9.428C21.312 9.428 21.548 9.332 21.74 9.14V9.14L24.212 6.668C24.404 6.476 24.5 6.24 24.5 5.96 24.5 5.68 24.404 5.444 24.212 5.252 22.66 3.78 20.892 2.636 18.908 1.82 16.86.988 14.724.572 12.5.572 10.276.572 8.14.988 6.092 1.82 4.108 2.636 2.34 3.78.788 5.252.596 5.444.5 5.68.5 5.96.5 6.24.596 6.476.788 6.668V6.668L3.26 9.14C3.452 9.332 3.688 9.428 3.968 9.428 4.248 9.428 4.484 9.332 4.676 9.14 5.444 8.42 6.332 7.812 7.34 7.316 7.5 7.252 7.636 7.128 7.748 6.944 7.86 6.76 7.916 6.572 7.916 6.38V6.38 3.284C9.388 2.82 10.916 2.588 12.5 2.588 13.988 2.588 15.516 2.836 17.084 3.332V3.332 6.428C17.084 6.636 17.136 6.816 17.24 6.968 17.344 7.12 17.484 7.236 17.66 7.316 18.668 7.812 19.556 8.42 20.324 9.14 20.516 9.332 20.752 9.428 21.032 9.428Z" />
</svg>
