<svg viewBox="0 0 18 20" xmlns="http://www.w3.org/2000/svg">
  <path
    d="M12 9.652V3.508C12 2.98 11.864 2.484 11.592 2.02 11.32 1.556 10.952 1.188 10.488.916 10.024.644 9.528.508 9 .508 8.472.508 7.976.644 7.512.916 7.048 1.188 6.68 1.556 6.408 2.02 6.136 2.484 6 2.98 6 3.508V3.508 3.7L12 9.652ZM9.984 19.492V16.204C11.04 16.028 11.896 15.732 12.552 15.316V15.316L16.728 19.492 18 18.22 1.272 1.492 0 2.764 6 8.764V9.508C6 10.036 6.136 10.532 6.408 10.996 6.68 11.46 7.048 11.828 7.512 12.1 7.976 12.372 8.472 12.508 9 12.508 9.208 12.508 9.424 12.476 9.648 12.412V12.412L11.304 14.044C10.552 14.396 9.784 14.572 9 14.572 8.072 14.572 7.204 14.356 6.396 13.924 5.588 13.492 4.944 12.9 4.464 12.148 3.952 11.364 3.696 10.484 3.696 9.508V9.508H2.016C2.016 10.628 2.288 11.684 2.832 12.676 3.36 13.62 4.084 14.408 5.004 15.04 5.924 15.672 6.928 16.06 8.016 16.204V16.204 19.492H9.984ZM15.096 12.796C15.688 11.74 15.984 10.644 15.984 9.508V9.508H14.304C14.304 10.244 14.16 10.916 13.872 11.524V11.524L15.096 12.796Z" />
</svg>
