<svg xmlns="http://www.w3.org/2000/svg" viewBox="0 0 18 18">
  <path
    d="M10 1c1.36 0 2.62.34 3.78 1.02a7.488 7.488 0 012.7 2.7A7.343 7.343 0 0117.5 8.5c0 1.36-.34 2.62-1.02 3.78a7.488 7.488 0 01-2.7 2.7A7.343 7.343 0 0110 16c-.853 0-1.67-.137-2.45-.41a7.27 7.27 0 01-2.11-1.15l1.16-1.18a6.72 6.72 0 001.62.78c.573.187 1.167.28 1.78.28a5.74 5.74 0 002.94-.78 5.87 5.87 0 002.1-2.1 5.74 5.74 0 00.78-2.94 5.74 5.74 0 00-.78-2.94 5.87 5.87 0 00-2.1-2.1A5.74 5.74 0 0010 2.68a5.74 5.74 0 00-2.94.78 5.87 5.87 0 00-2.1 2.1 5.74 5.74 0 00-.78 2.94h2.5l-3.36 3.32L0 8.5h2.5c0-1.36.34-2.62 1.02-3.78a7.488 7.488 0 012.7-2.7A7.343 7.343 0 0110 1z">
  </path>
</svg>
