<?xml version="1.0" encoding="UTF-8"?>
<svg width="71px" height="71px" viewBox="0 0 71 71" version="1.1" xmlns="http://www.w3.org/2000/svg" xmlns:xlink="http://www.w3.org/1999/xlink">
    <title>A2C7BA8B-1088-42F8-B93F-17786FA7B643</title>
    <defs>
        <filter x="-21.9%" y="-11.5%" width="143.8%" height="122.9%" filterUnits="objectBoundingBox" id="filter-1">
            <feOffset dx="0" dy="4" in="SourceAlpha" result="shadowOffsetOuter1"></feOffset>
            <feGaussianBlur stdDeviation="11.5" in="shadowOffsetOuter1" result="shadowBlurOuter1"></feGaussianBlur>
            <feColorMatrix values="0 0 0 0 0.86158288   0 0 0 0 0.86158288   0 0 0 0 0.86158288  0 0 0 0.5 0" type="matrix" in="shadowBlurOuter1" result="shadowMatrixOuter1"></feColorMatrix>
            <feMerge>
                <feMergeNode in="shadowMatrixOuter1"></feMergeNode>
                <feMergeNode in="SourceGraphic"></feMergeNode>
            </feMerge>
        </filter>
    </defs>
    <g id="Page-1" stroke="none" stroke-width="1" fill="none" fill-rule="evenodd">
        <g id="Q-Health--Book-appointment-Screen-V1" transform="translate(-90.000000, -871.000000)" fill="#FFFFFF">
            <g id="Group-6" filter="url(#filter-1)" transform="translate(80.000000, 497.000000)">
                <g id="Group" transform="translate(15.000000, 306.000000)">
                    <g id="Group-4" transform="translate(0.000000, 77.000000)">
                        <g id="Group-5" transform="translate(15.000000, 9.000000)">
                            <path d="M15.6132164,0 C23.0065328,0 29,6.04415588 29,13.5 C29,20.9558441 23.0065328,27 15.6132164,27 C9.56097151,27 4.44679753,22.9496733 2.79061279,17.39025 L8.56643969,17.39025 C9.9312786,19.8991703 12.5752882,21.6 15.6132164,21.6 C17.1975596,21.6 18.6747633,21.1374014 19.9192583,20.338835 L23.6909904,21.6062716 L22.4285076,17.7884063 C23.1996096,16.5447574 23.6452866,15.0748656 23.6452866,13.5 C23.6452866,9.02649353 20.0492063,5.4 15.6132164,5.4 C11.1772266,5.4 7.58114627,9.02649353 7.58114627,13.5 C7.58114627,13.597159 7.58284255,13.6939185 7.58620689,13.79025 L2.22946555,13.79025 C2.22744711,13.6937457 2.22643283,13.5969923 2.22643283,13.5 C2.22643283,6.04415588 8.21989999,0 15.6132164,0 Z M12.6912264,9.12181763 L14.8426327,17.5015397 L16.9352224,11.7213814 C17.1041732,11.254705 17.7617736,11.2637925 17.9179806,11.7349623 L19.0221018,15.0653426 L21.1540857,15.0653426 C21.4416035,15.0653426 21.6746828,15.3003931 21.6746828,15.5903426 C21.6746828,15.8802921 21.4416035,16.1153426 21.1540857,16.1153426 L18.6472325,16.1153426 C18.4233242,16.1153426 18.2244964,15.9709607 18.1534991,15.7568105 L17.4026344,13.4919639 L15.2469745,19.4463349 C15.0717439,19.9303574 14.3820384,19.896699 14.2539706,19.3978753 L12.0816991,10.9368829 L10.1636234,15.784897 C10.084675,15.9844425 9.89313284,16.1153426 9.68009251,16.1153426 L0.520597139,16.1153426 C0.233079278,16.1153426 0,15.8802921 0,15.5903426 C0,15.3003931 0.233079278,15.0653426 0.520597139,15.0653426 L9.32729956,15.0653426 L11.7037164,9.05885241 C11.8901476,8.58764011 12.5651315,8.63067816 12.6912264,9.12181763 Z" id="Combined-Shape"></path>
                        </g>
                    </g>
                </g>
            </g>
        </g>
    </g>
</svg>