<svg viewBox="0 0 267 35" fill="none" xmlns="http://www.w3.org/2000/svg">
  <path
    d="M28.0103 0H6.9897C3.12939 0 0 3.16982 0 7.08V27.92C0 31.8302 3.12939 35 6.9897 35H28.0103C31.8706 35 35 31.8302 35 27.92V7.08C35 3.16982 31.8706 0 28.0103 0Z"
    fill="url(#paint0_radial_71_36)" />
  <g style="mix-blend-mode:multiply" opacity="0.237746" filter="url(#filter0_f_71_36)">
    <path
      d="M17.8443 5.53174C23.1308 5.53174 27.4164 9.76265 27.4164 14.9817C27.4164 20.2008 23.1308 24.4317 17.8443 24.4317C12.5578 24.4317 8.27222 20.2008 8.27222 14.9817C8.27222 9.76265 12.5578 5.53174 17.8443 5.53174ZM17.8443 9.31174C14.6724 9.31174 12.1011 11.8503 12.1011 14.9817C12.1011 18.1132 14.6724 20.6517 17.8443 20.6517C18.9771 20.6517 20.0332 20.328 20.9231 19.7691L23.6202 20.6561L22.7179 17.983C23.269 17.1126 23.5876 16.0839 23.5876 14.9817C23.5876 11.8503 21.0162 9.31174 17.8443 9.31174ZM19.9138 15.896C20.6048 15.896 21.264 16.1901 21.7223 16.703L21.8859 16.8859L21.7638 17.0982C20.9632 18.4913 19.4613 19.3567 17.8443 19.3567L17.6141 19.3509C16.0858 19.2731 14.6873 18.425 13.9248 17.0982L13.8028 16.8859L13.9662 16.703C14.4246 16.1901 15.0838 15.896 15.7748 15.896H19.9138ZM17.8443 10.4317L18.0096 10.4373C19.266 10.5214 20.2587 11.5571 20.2587 12.8224C20.2587 14.1427 19.1778 15.213 17.8443 15.213L17.679 15.2075C16.4226 15.1234 15.4298 14.0877 15.4298 12.8224C15.4298 11.5021 16.5108 10.4317 17.8443 10.4317Z"
      fill="url(#paint1_radial_71_36)" style="mix-blend-mode:multiply" />
  </g>
  <g style="mix-blend-mode:multiply" opacity="0.303757" filter="url(#filter1_f_71_36)">
    <path
      d="M17.8443 5.53174C23.1308 5.53174 27.4164 9.76265 27.4164 14.9817C27.4164 20.2008 23.1308 24.4317 17.8443 24.4317C12.5578 24.4317 8.27222 20.2008 8.27222 14.9817C8.27222 9.76265 12.5578 5.53174 17.8443 5.53174ZM17.8443 9.31174C14.6724 9.31174 12.1011 11.8503 12.1011 14.9817C12.1011 18.1132 14.6724 20.6517 17.8443 20.6517C18.9771 20.6517 20.0332 20.328 20.9231 19.7691L23.6202 20.6561L22.7179 17.983C23.269 17.1126 23.5876 16.0839 23.5876 14.9817C23.5876 11.8503 21.0162 9.31174 17.8443 9.31174ZM19.9138 16.246C20.6048 16.246 21.264 16.5401 21.7223 17.053L21.8859 17.2359L21.7638 17.4482C20.9632 18.8413 19.4613 19.7067 17.8443 19.7067L17.6141 19.7009C16.0858 19.6231 14.6873 18.775 13.9248 17.4482L13.8028 17.2359L13.9662 17.053C14.4246 16.5401 15.0838 16.246 15.7748 16.246H19.9138ZM17.8443 10.7817L18.0096 10.7873C19.266 10.8714 20.2587 11.9071 20.2587 13.1724C20.2587 14.4927 19.1778 15.563 17.8443 15.563L17.679 15.5575C16.4226 15.4734 15.4298 14.4377 15.4298 13.1724C15.4298 11.8521 16.5108 10.7817 17.8443 10.7817Z"
      fill="url(#paint2_radial_71_36)" style="mix-blend-mode:multiply" />
  </g>
  <g style="mix-blend-mode:multiply" opacity="0.200242" filter="url(#filter2_f_71_36)">
    <path
      d="M17.8443 4.74414C23.1308 4.74414 27.4164 8.97505 27.4164 14.1941C27.4164 19.4132 23.1308 23.6441 17.8443 23.6441C12.5578 23.6441 8.27222 19.4132 8.27222 14.1941C8.27222 8.97505 12.5578 4.74414 17.8443 4.74414ZM17.8443 8.52414C14.6724 8.52414 12.1011 11.0627 12.1011 14.1941C12.1011 17.3256 14.6724 19.8641 17.8443 19.8641C18.9771 19.8641 20.0332 19.5404 20.9231 18.9815L23.6202 19.8685L22.7179 17.1954C23.269 16.325 23.5876 15.2963 23.5876 14.1941C23.5876 11.0627 21.0162 8.52414 17.8443 8.52414ZM19.9138 15.1959C20.6048 15.1959 21.264 15.49 21.7223 16.0029L21.8859 16.1858L21.7638 16.3981C20.9632 17.7912 19.4613 18.6566 17.8443 18.6566L17.6141 18.6508C16.0858 18.573 14.6873 17.7249 13.9248 16.3981L13.8028 16.1858L13.9662 16.0029C14.4246 15.49 15.0838 15.1959 15.7748 15.1959H19.9138ZM17.8443 9.73164L18.0096 9.73716C19.266 9.82127 20.2587 10.857 20.2587 12.1223C20.2587 13.4426 19.1778 14.5129 17.8443 14.5129L17.679 14.5074C16.4226 14.4233 15.4298 13.3876 15.4298 12.1223C15.4298 10.802 16.5108 9.73164 17.8443 9.73164Z"
      fill="url(#paint3_radial_71_36)" style="mix-blend-mode:multiply" />
  </g>
  <path fill-rule="evenodd" clip-rule="evenodd"
    d="M17.5721 4C22.8586 4 27.1442 8.23091 27.1442 13.45C27.1442 18.6691 22.8586 22.9 17.5721 22.9C12.2856 22.9 8 18.6691 8 13.45C8 8.23091 12.2856 4 17.5721 4ZM17.5721 7.78C14.4002 7.78 11.8288 10.3185 11.8288 13.45C11.8288 16.5815 14.4002 19.12 17.5721 19.12C18.7049 19.12 19.761 18.7962 20.6508 18.2373L23.348 19.1244L22.4457 16.4513C22.9968 15.5809 23.3153 14.5522 23.3153 13.45C23.3153 10.3185 20.744 7.78 17.5721 7.78ZM19.6416 14.6793C20.3326 14.6793 20.9918 14.9734 21.4501 15.4862L21.6136 15.6692L21.4916 15.8815C20.691 17.2746 19.1891 18.14 17.5721 18.14L17.3419 18.1341C15.8136 18.0564 14.415 17.2083 13.6526 15.8815L13.5305 15.6692L13.694 15.4862C14.1524 14.9734 14.8116 14.6793 15.5025 14.6793H19.6416ZM17.5721 9.215L17.7374 9.22052C18.9937 9.30463 19.9865 10.3403 19.9865 11.6056C19.9865 12.9259 18.9055 13.9963 17.5721 13.9963L17.4068 13.9907C16.1504 13.9066 15.1576 12.8709 15.1576 11.6056C15.1576 10.2853 16.2386 9.215 17.5721 9.215Z"
    fill="url(#paint4_linear_71_36)" />
  <path d="M9 26H9.7V30.27H12.64V30.97H9V26Z" fill="white" />
  <path d="M14.425 26H15.125V30.97H14.425V26Z" fill="white" />
  <path d="M21.25 26V26.7H19.43V30.97H18.73V26.7H16.91V26H21.25Z" fill="white" />
  <path d="M26.605 26V26.7H23.735V28.135H26.395V28.835H23.735V30.27H26.605V30.97H23.035V26H26.605Z" fill="white" />
  <path
    d="M44.7339 17.1353C44.7339 16.2872 44.8937 15.4915 45.2132 14.7481C45.5328 14.0047 45.9708 13.3549 46.5273 12.7988C47.0837 12.2426 47.7338 11.8048 48.4776 11.4854C49.2214 11.166 50.0176 11.0063 50.866 11.0063C51.7145 11.0063 52.5106 11.166 53.2544 11.4854C53.9982 11.8048 54.6484 12.2426 55.2048 12.7988C55.7613 13.3549 56.1993 14.0047 56.5188 14.7481C56.8384 15.4915 56.9982 16.2872 56.9982 17.1353C56.9982 17.8401 56.8852 18.5064 56.6593 19.1342C56.4335 19.7619 56.1277 20.3346 55.742 20.8523L56.7503 21.86L55.6098 22.9999L54.6015 21.9921C54.0726 22.3886 53.4941 22.6998 52.866 22.9255C52.2379 23.1513 51.5713 23.2642 50.866 23.2642C50.0176 23.2642 49.2214 23.1045 48.4776 22.7851C47.7338 22.4657 47.0837 22.0279 46.5273 21.4718C45.9708 20.9156 45.5328 20.2658 45.2132 19.5224C44.8937 18.779 44.7339 17.9833 44.7339 17.1353ZM46.3868 17.1353C46.3868 17.752 46.5025 18.333 46.7339 18.8781C46.9653 19.4233 47.2848 19.8996 47.6925 20.3071C48.1002 20.7146 48.5768 21.034 49.1223 21.2653C49.6677 21.4965 50.249 21.6122 50.866 21.6122C51.3399 21.6122 51.7916 21.5434 52.2214 21.4057C52.6511 21.268 53.0478 21.0725 53.4115 20.8192L52.4197 19.8115L53.5437 18.6716L54.5519 19.6793C54.8054 19.3269 55.001 18.9359 55.1387 18.5064C55.2764 18.0769 55.3453 17.6199 55.3453 17.1353C55.3453 16.5185 55.2269 15.9376 54.9899 15.3924C54.753 14.8472 54.4335 14.3737 54.0313 13.9717C53.6291 13.5697 53.1553 13.2503 52.6098 13.0135C52.0644 12.7767 51.4831 12.6583 50.866 12.6583C50.249 12.6583 49.6677 12.7767 49.1223 13.0135C48.5768 13.2503 48.1002 13.5697 47.6925 13.9717C47.2848 14.3737 46.9653 14.8472 46.7339 15.3924C46.5025 15.9376 46.3868 16.5185 46.3868 17.1353Z"
    fill="#006BFF" />
  <path d="M61.2295 17.5483H66.9154V19.2003H61.2295V17.5483Z" fill="#006BFF" />
  <path
    d="M81.5433 21.5296C80.9813 22.0692 80.3367 22.4933 79.6094 22.8016C78.8822 23.11 78.1053 23.2642 77.2789 23.2642C76.4304 23.2642 75.6343 23.1045 74.8905 22.7851C74.1467 22.4657 73.4966 22.0279 72.9401 21.4718C72.3836 20.9156 71.9456 20.2658 71.6261 19.5224C71.3065 18.779 71.1467 17.9833 71.1467 17.1353C71.1467 16.2872 71.3065 15.4915 71.6261 14.7481C71.9456 14.0047 72.3836 13.3549 72.9401 12.7988C73.4966 12.2426 74.1467 11.8048 74.8905 11.4854C75.6343 11.166 76.4304 11.0063 77.2789 11.0063C78.1163 11.0063 78.8959 11.1605 79.6177 11.4689C80.3394 11.7773 80.9813 12.2013 81.5433 12.7409L80.3863 13.9139C79.9786 13.5284 79.5102 13.2228 78.9813 12.997C78.4524 12.7712 77.8849 12.6583 77.2789 12.6583C76.6618 12.6583 76.0805 12.7767 75.5351 13.0135C74.9896 13.2503 74.5131 13.5697 74.1054 13.9717C73.6977 14.3737 73.3781 14.8472 73.1467 15.3924C72.9153 15.9376 72.7996 16.5185 72.7996 17.1353C72.7996 17.752 72.9153 18.333 73.1467 18.8781C73.3781 19.4233 73.6977 19.8996 74.1054 20.3071C74.5131 20.7146 74.9896 21.034 75.5351 21.2653C76.0805 21.4965 76.6618 21.6122 77.2789 21.6122C77.8849 21.6122 78.4524 21.4993 78.9813 21.2735C79.5102 21.0478 79.9786 20.7421 80.3863 20.3567L81.5433 21.5296Z"
    fill="#006BFF" />
  <path
    d="M84.849 17.1353C84.849 16.2872 85.0088 15.4915 85.3283 14.7481C85.6479 14.0047 86.0859 13.3549 86.6424 12.7988C87.1988 12.2426 87.849 11.8048 88.5927 11.4854C89.3365 11.166 90.1327 11.0063 90.9811 11.0063C91.8296 11.0063 92.6258 11.166 93.3695 11.4854C94.1133 11.8048 94.7635 12.2426 95.3199 12.7988C95.8764 13.3549 96.3144 14.0047 96.634 14.7481C96.9535 15.4915 97.1133 16.2872 97.1133 17.1353C97.1133 17.9833 96.9535 18.779 96.634 19.5224C96.3144 20.2658 95.8764 20.9156 95.3199 21.4718C94.7635 22.0279 94.1133 22.4657 93.3695 22.7851C92.6258 23.1045 91.8296 23.2642 90.9811 23.2642C90.1327 23.2642 89.3365 23.1045 88.5927 22.7851C87.849 22.4657 87.1988 22.0279 86.6424 21.4718C86.0859 20.9156 85.6479 20.2658 85.3283 19.5224C85.0088 18.779 84.849 17.9833 84.849 17.1353ZM86.5019 17.1353C86.5019 17.752 86.6176 18.333 86.849 18.8781C87.0804 19.4233 87.3999 19.8996 87.8076 20.3071C88.2153 20.7146 88.6919 21.034 89.2374 21.2653C89.7828 21.4965 90.3641 21.6122 90.9811 21.6122C91.5982 21.6122 92.1795 21.4965 92.7249 21.2653C93.2704 21.034 93.7442 20.7146 94.1464 20.3071C94.5486 19.8996 94.8681 19.4233 95.1051 18.8781C95.342 18.333 95.4604 17.752 95.4604 17.1353C95.4604 16.5185 95.342 15.9376 95.1051 15.3924C94.8681 14.8472 94.5486 14.3737 94.1464 13.9717C93.7442 13.5697 93.2704 13.2503 92.7249 13.0135C92.1795 12.7767 91.5982 12.6583 90.9811 12.6583C90.3641 12.6583 89.7828 12.7767 89.2374 13.0135C88.6919 13.2503 88.2153 13.5697 87.8076 13.9717C87.3999 14.3737 87.0804 14.8472 86.849 15.3924C86.6176 15.9376 86.5019 16.5185 86.5019 17.1353Z"
    fill="#006BFF" />
  <path
    d="M103.444 14.0789V22.9997H101.791V11.2705H103.444L109.989 20.1913V11.2705H111.642V22.9997H109.989L103.444 14.0789Z"
    fill="#006BFF" />
  <path
    d="M117.906 19.6959C117.906 20.0153 117.986 20.2933 118.146 20.5301C118.306 20.7669 118.523 20.9652 118.799 21.1248C119.074 21.2845 119.4 21.4057 119.774 21.4883C120.149 21.5709 120.545 21.6122 120.964 21.6122C121.383 21.6122 121.78 21.5681 122.154 21.48C122.529 21.3919 122.854 21.2653 123.129 21.1001C123.405 20.9349 123.623 20.7339 123.782 20.4971C123.942 20.2603 124.022 19.9932 124.022 19.6959C124.022 19.3985 123.942 19.148 123.782 18.9442C123.623 18.7405 123.405 18.5642 123.129 18.4156C122.854 18.2669 122.529 18.1457 122.154 18.0521C121.78 17.9585 121.383 17.8677 120.964 17.7795C120.369 17.6694 119.807 17.5345 119.278 17.3748C118.749 17.2151 118.287 17.0059 117.89 16.747C117.493 16.4882 117.176 16.1716 116.939 15.7971C116.703 15.4227 116.584 14.9546 116.584 14.3929C116.584 13.8533 116.7 13.3742 116.931 12.9557C117.163 12.5372 117.477 12.182 117.873 11.8902C118.27 11.5983 118.733 11.378 119.262 11.2294C119.791 11.0807 120.358 11.0063 120.964 11.0063C121.603 11.0063 122.193 11.0889 122.733 11.2541C123.273 11.4193 123.736 11.6506 124.121 11.948C124.507 12.2453 124.807 12.6033 125.022 13.0218C125.237 13.4403 125.344 13.8973 125.344 14.3929H123.691C123.691 14.1176 123.62 13.8726 123.477 13.6578C123.333 13.443 123.138 13.2613 122.89 13.1126C122.642 12.964 122.353 12.8511 122.022 12.774C121.691 12.6969 121.339 12.6583 120.964 12.6583C120.127 12.6583 119.463 12.8098 118.973 13.1126C118.482 13.4155 118.237 13.8423 118.237 14.3929C118.237 14.6242 118.311 14.8307 118.46 15.0124C118.609 15.1942 118.807 15.3566 119.055 15.4998C119.303 15.643 119.592 15.7669 119.923 15.8715C120.253 15.9761 120.601 16.0615 120.964 16.1275C121.614 16.2487 122.226 16.3974 122.799 16.5736C123.372 16.7498 123.871 16.9728 124.295 17.2426C124.719 17.5125 125.055 17.8456 125.303 18.2421C125.551 18.6386 125.675 19.1232 125.675 19.6959C125.675 20.2686 125.551 20.7752 125.303 21.2157C125.055 21.6562 124.719 22.0279 124.295 22.3308C123.871 22.6337 123.372 22.865 122.799 23.0246C122.226 23.1843 121.614 23.2642 120.964 23.2642C120.314 23.2642 119.703 23.1816 119.13 23.0164C118.557 22.8512 118.058 22.6144 117.634 22.306C117.209 21.9977 116.873 21.6232 116.625 21.1827C116.378 20.7421 116.254 20.2465 116.254 19.6959H117.906Z"
    fill="#006BFF" />
  <path
    d="M138.369 11.2705H140.022V18.3411C140.022 19.0239 139.892 19.6627 139.633 20.2574C139.374 20.8521 139.022 21.3725 138.575 21.8185C138.129 22.2646 137.606 22.617 137.005 22.8758C136.405 23.1346 135.768 23.264 135.096 23.264C134.413 23.264 133.774 23.1346 133.179 22.8758C132.584 22.617 132.063 22.2646 131.617 21.8185C131.171 21.3725 130.818 20.8521 130.559 20.2574C130.3 19.6627 130.171 19.0239 130.171 18.3411V11.2705H131.824V18.3411C131.824 18.7926 131.909 19.2166 132.08 19.6131C132.251 20.0096 132.485 20.3565 132.782 20.6539C133.08 20.9512 133.427 21.1853 133.824 21.356C134.22 21.5267 134.644 21.612 135.096 21.612C135.548 21.612 135.972 21.5267 136.369 21.356C136.766 21.1853 137.113 20.9512 137.41 20.6539C137.708 20.3565 137.942 20.0096 138.113 19.6131C138.283 19.2166 138.369 18.7926 138.369 18.3411V11.2705Z"
    fill="#006BFF" />
  <path d="M145.311 11.2705H146.964V21.3477H153.906V22.9997H145.311V11.2705Z" fill="#006BFF" />
  <path d="M165.03 11.2705V12.9225H160.732V22.9997H159.079V12.9225H154.782V11.2705H165.03Z" fill="#006BFF" />
  <path
    d="M177.674 22.9997H175.906L174.682 19.8939H169.608L168.402 22.9997H166.633L171.228 11.2705H173.079L177.674 22.9997ZM170.253 18.2419H174.038L172.154 13.4181L170.253 18.2419Z"
    fill="#006BFF" />
  <path d="M189.525 11.2705V12.9225H185.228V22.9997H183.575V12.9225H179.277V11.2705H189.525Z" fill="#006BFF" />
  <path d="M193.74 11.2705H195.392V22.9997H193.74V11.2705Z" fill="#006BFF" />
  <path
    d="M200.071 17.1353C200.071 16.2872 200.23 15.4915 200.55 14.7481C200.869 14.0047 201.307 13.3549 201.864 12.7988C202.42 12.2426 203.071 11.8048 203.814 11.4854C204.558 11.166 205.354 11.0063 206.203 11.0063C207.051 11.0063 207.847 11.166 208.591 11.4854C209.335 11.8048 209.985 12.2426 210.541 12.7988C211.098 13.3549 211.536 14.0047 211.856 14.7481C212.175 15.4915 212.335 16.2872 212.335 17.1353C212.335 17.9833 212.175 18.779 211.856 19.5224C211.536 20.2658 211.098 20.9156 210.541 21.4718C209.985 22.0279 209.335 22.4657 208.591 22.7851C207.847 23.1045 207.051 23.2642 206.203 23.2642C205.354 23.2642 204.558 23.1045 203.814 22.7851C203.071 22.4657 202.42 22.0279 201.864 21.4718C201.307 20.9156 200.869 20.2658 200.55 19.5224C200.23 18.779 200.071 17.9833 200.071 17.1353ZM201.723 17.1353C201.723 17.752 201.839 18.333 202.071 18.8781C202.302 19.4233 202.621 19.8996 203.029 20.3071C203.437 20.7146 203.913 21.034 204.459 21.2653C205.004 21.4965 205.586 21.6122 206.203 21.6122C206.82 21.6122 207.401 21.4965 207.946 21.2653C208.492 21.034 208.966 20.7146 209.368 20.3071C209.77 19.8996 210.09 19.4233 210.327 18.8781C210.564 18.333 210.682 17.752 210.682 17.1353C210.682 16.5185 210.564 15.9376 210.327 15.3924C210.09 14.8472 209.77 14.3737 209.368 13.9717C208.966 13.5697 208.492 13.2503 207.946 13.0135C207.401 12.7767 206.82 12.6583 206.203 12.6583C205.586 12.6583 205.004 12.7767 204.459 13.0135C203.913 13.2503 203.437 13.5697 203.029 13.9717C202.621 14.3737 202.302 14.8472 202.071 15.3924C201.839 15.9376 201.723 16.5185 201.723 17.1353Z"
    fill="#006BFF" />
  <path
    d="M218.665 14.0789V22.9997H217.012V11.2705H218.665L225.211 20.1913V11.2705H226.864V22.9997H225.211L218.665 14.0789Z"
    fill="#006BFF" />
  <path d="M238.205 14.48H239.406V21.8H244.449V23H238.205V14.48Z" fill="#6C7A92" />
  <path d="M246.71 14.48H247.91V23H246.71V14.48Z" fill="#6C7A92" />
  <path d="M257.616 14.48V15.68H254.494V23H253.293V15.68H250.172V14.48H257.616Z" fill="#6C7A92" />
  <path d="M266 14.48V15.68H261.077V18.14H265.64V19.34H261.077V21.8H266V23H259.877V14.48H266Z" fill="#6C7A92" />
  <defs>
    <filter id="filter0_f_71_36" x="2.96222" y="0.221738" width="29.7642" height="29.5199" filterUnits="userSpaceOnUse"
      color-interpolation-filters="sRGB">
      <feFlood flood-opacity="0" result="BackgroundImageFix" />
      <feBlend mode="normal" in="SourceGraphic" in2="BackgroundImageFix" result="shape" />
      <feGaussianBlur stdDeviation="2.655" result="effect1_foregroundBlur_71_36" />
    </filter>
    <filter id="filter1_f_71_36" x="5.82962" y="3.08914" width="24.0294" height="23.7851" filterUnits="userSpaceOnUse"
      color-interpolation-filters="sRGB">
      <feFlood flood-opacity="0" result="BackgroundImageFix" />
      <feBlend mode="normal" in="SourceGraphic" in2="BackgroundImageFix" result="shape" />
      <feGaussianBlur stdDeviation="1.2213" result="effect1_foregroundBlur_71_36" />
    </filter>
    <filter id="filter2_f_71_36" x="8.05982" y="4.53174" width="19.569" height="19.3247" filterUnits="userSpaceOnUse"
      color-interpolation-filters="sRGB">
      <feFlood flood-opacity="0" result="BackgroundImageFix" />
      <feBlend mode="normal" in="SourceGraphic" in2="BackgroundImageFix" result="shape" />
      <feGaussianBlur stdDeviation="0.1062" result="effect1_foregroundBlur_71_36" />
    </filter>
    <radialGradient id="paint0_radial_71_36" cx="0" cy="0" r="1" gradientUnits="userSpaceOnUse"
      gradientTransform="rotate(45.3677) scale(49.8182 49.1828)">
      <stop stop-color="#4599FF" />
      <stop offset="1" stop-color="#0165FF" />
    </radialGradient>
    <radialGradient id="paint1_radial_71_36" cx="0" cy="0" r="1" gradientUnits="userSpaceOnUse"
      gradientTransform="translate(-1.30683 -34.2335) rotate(-135) scale(27.074 26.7308)">
      <stop stop-color="#7DACFF" />
      <stop offset="1" stop-color="#6A94FF" />
    </radialGradient>
    <radialGradient id="paint2_radial_71_36" cx="0" cy="0" r="1" gradientUnits="userSpaceOnUse"
      gradientTransform="translate(-1.30683 -34.2335) rotate(-135) scale(27.074 26.7308)">
      <stop stop-color="#7DACFF" />
      <stop offset="1" stop-color="#6A94FF" />
    </radialGradient>
    <radialGradient id="paint3_radial_71_36" cx="0" cy="0" r="1" gradientUnits="userSpaceOnUse"
      gradientTransform="translate(-1.85303 -33.6732) rotate(-135) scale(27.0739 26.7308)">
      <stop stop-color="#7DACFF" />
      <stop offset="1" stop-color="#6A94FF" />
    </radialGradient>
    <linearGradient id="paint4_linear_71_36" x1="10.9058" y1="6.87214" x2="24.3123" y2="20.093"
      gradientUnits="userSpaceOnUse">
      <stop stop-color="white" stop-opacity="0.598175" />
      <stop offset="1" stop-color="white" />
    </linearGradient>
  </defs>
</svg>
