<svg viewBox="0 0 195 30" xmlns="http://www.w3.org/2000/svg" fill="#3978FC">
  <path
    d="M25.566 0C28.88 0 31.566 2.686 31.566 6V24C31.566 27.314 28.88 30 25.566 30H7.566C4.252 30 1.566 27.314 1.566 24V6C1.566 2.686 4.252 0 7.566 0H25.566ZM16.666 7C12.192 7 8.566 10.626 8.566 15.1 8.566 19.574 12.192 23.2 16.666 23.2 21.14 23.2 24.766 19.574 24.766 15.1 24.766 10.626 21.14 7 16.666 7ZM44.362 9.836C45.081 9.836 45.755 9.971 46.385 10.242 47.015 10.513 47.566 10.884 48.037 11.355 48.508 11.826 48.879 12.377 49.15 13.007 49.421 13.637 49.556 14.311 49.556 15.03 49.556 15.627 49.46 16.192 49.269 16.724 49.116 17.15 48.92 17.545 48.68 17.911L48.492 18.18 49.346 19.034 48.38 20 47.526 19.146 47.252 19.339C46.88 19.585 46.482 19.784 46.056 19.937 45.524 20.128 44.959 20.224 44.362 20.224 43.643 20.224 42.969 20.089 42.339 19.818 41.709 19.547 41.158 19.176 40.687 18.705 40.216 18.234 39.845 17.683 39.574 17.053 39.303 16.423 39.168 15.749 39.168 15.03 39.168 14.311 39.303 13.637 39.574 13.007 39.845 12.377 40.216 11.826 40.687 11.355 41.158 10.884 41.709 10.513 42.339 10.242 42.969 9.971 43.643 9.836 44.362 9.836ZM66.734 9.836C67.443 9.836 68.104 9.967 68.715 10.228 69.239 10.452 69.713 10.748 70.138 11.116L70.346 11.306 69.366 12.3 69.153 12.112C68.86 11.872 68.534 11.676 68.176 11.523 67.728 11.332 67.247 11.236 66.734 11.236 66.211 11.236 65.719 11.336 65.257 11.537 64.795 11.738 64.391 12.008 64.046 12.349 63.701 12.69 63.43 13.091 63.234 13.553 63.038 14.015 62.94 14.507 62.94 15.03 62.94 15.553 63.038 16.045 63.234 16.507 63.43 16.969 63.701 17.373 64.046 17.718 64.391 18.063 64.795 18.334 65.257 18.53 65.719 18.726 66.211 18.824 66.734 18.824 67.247 18.824 67.728 18.728 68.176 18.537 68.534 18.384 68.86 18.188 69.153 17.948L69.366 17.76 70.346 18.754 70.138 18.944C69.713 19.312 69.236 19.608 68.708 19.832 68.092 20.093 67.434 20.224 66.734 20.224 66.015 20.224 65.341 20.089 64.711 19.818 64.081 19.547 63.53 19.176 63.059 18.705 62.588 18.234 62.217 17.683 61.946 17.053 61.675 16.423 61.54 15.749 61.54 15.03 61.54 14.311 61.675 13.637 61.946 13.007 62.217 12.377 62.588 11.826 63.059 11.355 63.53 10.884 64.081 10.513 64.711 10.242 65.341 9.971 66.015 9.836 66.734 9.836ZM78.34 9.836C79.059 9.836 79.733 9.971 80.363 10.242 80.993 10.513 81.544 10.884 82.015 11.355 82.486 11.826 82.857 12.377 83.128 13.007 83.399 13.637 83.534 14.311 83.534 15.03 83.534 15.749 83.399 16.423 83.128 17.053 82.857 17.683 82.486 18.234 82.015 18.705 81.544 19.176 80.993 19.547 80.363 19.818 79.733 20.089 79.059 20.224 78.34 20.224 77.621 20.224 76.947 20.089 76.317 19.818 75.687 19.547 75.136 19.176 74.665 18.705 74.194 18.234 73.823 17.683 73.552 17.053 73.281 16.423 73.146 15.749 73.146 15.03 73.146 14.311 73.281 13.637 73.552 13.007 73.823 12.377 74.194 11.826 74.665 11.355 75.136 10.884 75.687 10.513 76.317 10.242 76.947 9.971 77.621 9.836 78.34 9.836ZM103.736 9.836C104.277 9.836 104.777 9.906 105.234 10.046 105.691 10.186 106.083 10.382 106.41 10.634 106.737 10.886 106.991 11.189 107.173 11.544 107.325 11.84 107.413 12.158 107.438 12.499L107.446 12.706H106.046L106.039 12.569C106.019 12.391 105.961 12.229 105.864 12.083 105.743 11.901 105.577 11.747 105.367 11.621 105.157 11.495 104.912 11.399 104.632 11.334 104.352 11.269 104.053 11.236 103.736 11.236 103.027 11.236 102.464 11.364 102.049 11.621 101.634 11.878 101.426 12.239 101.426 12.706 101.426 12.902 101.489 13.077 101.615 13.231 101.741 13.385 101.909 13.523 102.119 13.644 102.329 13.765 102.574 13.87 102.854 13.959 103.041 14.018 103.234 14.07 103.433 14.115L103.736 14.176C104.287 14.279 104.805 14.405 105.29 14.554 105.775 14.703 106.198 14.892 106.557 15.121 106.916 15.35 107.201 15.632 107.411 15.968 107.621 16.304 107.726 16.715 107.726 17.2 107.726 17.685 107.621 18.115 107.411 18.488 107.201 18.861 106.916 19.176 106.557 19.433 106.198 19.69 105.775 19.886 105.29 20.021 104.805 20.156 104.287 20.224 103.736 20.224 103.185 20.224 102.667 20.154 102.182 20.014 101.697 19.874 101.274 19.673 100.915 19.412 100.556 19.151 100.271 18.833 100.061 18.46 99.881 18.14 99.778 17.786 99.752 17.397L99.746 17.2H101.146L101.154 17.358C101.176 17.564 101.241 17.746 101.349 17.907 101.484 18.108 101.669 18.276 101.902 18.411 102.135 18.546 102.411 18.649 102.728 18.719 103.045 18.789 103.381 18.824 103.736 18.824 104.091 18.824 104.427 18.787 104.744 18.712 105.061 18.637 105.337 18.53 105.57 18.39 105.803 18.25 105.988 18.08 106.123 17.879 106.258 17.678 106.326 17.452 106.326 17.2 106.326 16.948 106.258 16.736 106.123 16.563 105.988 16.39 105.803 16.241 105.57 16.115 105.337 15.989 105.061 15.886 104.744 15.807 104.427 15.728 104.091 15.651 103.736 15.576 103.232 15.483 102.756 15.368 102.308 15.233 101.86 15.098 101.468 14.92 101.132 14.701 100.796 14.482 100.528 14.213 100.327 13.896 100.126 13.579 100.026 13.182 100.026 12.706 100.026 12.249 100.124 11.843 100.32 11.488 100.516 11.133 100.782 10.832 101.118 10.585 101.454 10.338 101.846 10.151 102.294 10.025 102.742 9.899 103.223 9.836 103.736 9.836ZM112.934 10.06V16.052L112.943 16.279C112.966 16.577 113.035 16.861 113.151 17.13 113.296 17.466 113.494 17.76 113.746 18.012 113.998 18.264 114.292 18.462 114.628 18.607 114.964 18.752 115.323 18.824 115.706 18.824 116.089 18.824 116.448 18.752 116.784 18.607 117.12 18.462 117.414 18.264 117.666 18.012 117.918 17.76 118.116 17.466 118.261 17.13 118.377 16.861 118.446 16.577 118.469 16.279L118.478 16.052V10.06H119.878V16.052L119.871 16.298C119.844 16.785 119.737 17.244 119.549 17.676 119.33 18.18 119.031 18.621 118.653 18.999 118.275 19.377 117.832 19.676 117.323 19.895 116.814 20.114 116.275 20.224 115.706 20.224 115.127 20.224 114.586 20.114 114.082 19.895 113.578 19.676 113.137 19.377 112.759 18.999 112.381 18.621 112.082 18.18 111.863 17.676 111.675 17.244 111.568 16.785 111.541 16.298L111.534 16.052V10.06H112.934ZM175.934 9.836C176.653 9.836 177.327 9.971 177.957 10.242 178.587 10.513 179.138 10.884 179.609 11.355 180.08 11.826 180.451 12.377 180.722 13.007 180.993 13.637 181.128 14.311 181.128 15.03 181.128 15.749 180.993 16.423 180.722 17.053 180.451 17.683 180.08 18.234 179.609 18.705 179.138 19.176 178.587 19.547 177.957 19.818 177.327 20.089 176.653 20.224 175.934 20.224 175.215 20.224 174.541 20.089 173.911 19.818 173.281 19.547 172.73 19.176 172.259 18.705 171.788 18.234 171.417 17.683 171.146 17.053 170.875 16.423 170.74 15.749 170.74 15.03 170.74 14.311 170.875 13.637 171.146 13.007 171.417 12.377 171.788 11.826 172.259 11.355 172.73 10.884 173.281 10.513 173.911 10.242 174.541 9.971 175.215 9.836 175.934 9.836ZM186.49 10.06 192.034 17.62V10.06H193.434V20H192.034L186.49 12.44V20H185.09V10.06H186.49ZM88.896 10.06 94.44 17.62V10.06H95.84V20H94.44L88.896 12.44V20H87.496V10.06H88.896ZM125.758 10.06V18.6H131.638V20H124.358V10.06H125.758ZM141.06 10.06V11.46H137.42V20H136.02V11.46H132.38V10.06H141.06ZM147.878 10.06 151.77 20H150.272L149.236 17.368H144.938L143.916 20H142.418L146.31 10.06H147.878ZM161.808 10.06V11.46H158.168V20H156.768V11.46H153.128V10.06H161.808ZM166.778 10.06V20H165.378V10.06H166.778ZM16.666 10.24C19.35 10.24 21.526 12.416 21.526 15.1 21.526 15.95 21.308 16.75 20.924 17.445L20.79 17.673 21.554 19.964 19.271 19.204 19.041 19.341C18.339 19.735 17.529 19.96 16.666 19.96 13.982 19.96 11.806 17.784 11.806 15.1 11.806 12.416 13.982 10.24 16.666 10.24ZM18.417 16.154H14.915L14.74 16.161C14.278 16.201 13.842 16.398 13.506 16.719L13.384 16.845 13.246 17.002 13.349 17.184 13.468 17.38C14.088 18.335 15.104 18.963 16.225 19.094L16.451 19.114 16.666 19.12 16.881 19.114C18.091 19.045 19.202 18.398 19.864 17.379L19.983 17.184 20.086 17.002 19.948 16.845 19.826 16.719C19.448 16.358 18.943 16.154 18.417 16.154ZM175.934 11.236C175.411 11.236 174.919 11.336 174.457 11.537 173.995 11.738 173.591 12.008 173.246 12.349 172.901 12.69 172.63 13.091 172.434 13.553 172.238 14.015 172.14 14.507 172.14 15.03 172.14 15.553 172.238 16.045 172.434 16.507 172.63 16.969 172.901 17.373 173.246 17.718 173.591 18.063 173.995 18.334 174.457 18.53 174.919 18.726 175.411 18.824 175.934 18.824 176.457 18.824 176.949 18.726 177.411 18.53 177.873 18.334 178.274 18.063 178.615 17.718 178.956 17.373 179.226 16.969 179.427 16.507 179.628 16.045 179.728 15.553 179.728 15.03 179.728 14.507 179.628 14.015 179.427 13.553 179.226 13.091 178.956 12.69 178.615 12.349 178.274 12.008 177.873 11.738 177.411 11.537 176.949 11.336 176.457 11.236 175.934 11.236ZM78.34 11.236C77.817 11.236 77.325 11.336 76.863 11.537 76.401 11.738 75.997 12.008 75.652 12.349 75.307 12.69 75.036 13.091 74.84 13.553 74.644 14.015 74.546 14.507 74.546 15.03 74.546 15.553 74.644 16.045 74.84 16.507 75.036 16.969 75.307 17.373 75.652 17.718 75.997 18.063 76.401 18.334 76.863 18.53 77.325 18.726 77.817 18.824 78.34 18.824 78.863 18.824 79.355 18.726 79.817 18.53 80.279 18.334 80.68 18.063 81.021 17.718 81.362 17.373 81.632 16.969 81.833 16.507 82.034 16.045 82.134 15.553 82.134 15.03 82.134 14.507 82.034 14.015 81.833 13.553 81.632 13.091 81.362 12.69 81.021 12.349 80.68 12.008 80.279 11.738 79.817 11.537 79.355 11.336 78.863 11.236 78.34 11.236ZM44.362 11.236C43.839 11.236 43.347 11.336 42.885 11.537 42.423 11.738 42.019 12.008 41.674 12.349 41.329 12.69 41.058 13.091 40.862 13.553 40.666 14.015 40.568 14.507 40.568 15.03 40.568 15.553 40.666 16.045 40.862 16.507 41.058 16.969 41.329 17.373 41.674 17.718 42.019 18.063 42.423 18.334 42.885 18.53 43.347 18.726 43.839 18.824 44.362 18.824 44.763 18.824 45.146 18.766 45.51 18.649 45.801 18.556 46.074 18.431 46.33 18.275L46.518 18.152 45.678 17.298 46.63 16.332 47.484 17.186 47.607 17.003C47.763 16.753 47.888 16.483 47.981 16.192 48.098 15.828 48.156 15.441 48.156 15.03 48.156 14.507 48.056 14.015 47.855 13.553 47.654 13.091 47.384 12.69 47.043 12.349 46.702 12.008 46.301 11.738 45.839 11.537 45.377 11.336 44.885 11.236 44.362 11.236ZM57.956 15.38V16.78H53.14V15.38H57.956ZM147.094 11.88 145.484 15.968H148.69L147.094 11.88ZM16.666 11.47 16.514 11.476C15.456 11.554 14.623 12.439 14.623 13.519 14.623 14.548 15.379 15.4 16.364 15.546L16.514 15.563 16.666 15.568 16.818 15.563C17.876 15.484 18.709 14.599 18.709 13.519 18.709 12.49 17.953 11.639 16.968 11.492L16.818 11.476 16.666 11.47Z" />
</svg>
