<svg viewBox="0 0 44 44" xmlns="http://www.w3.org/2000/svg">
  <path d="M35.7501 33.8067L8.74508 5.94L6.41675 8.26833L11.5501 13.4017V13.42C10.5967 15.235 10.0834 17.38 10.0834 19.69V28.8567L6.41675 32.5233V34.3567H31.5884L35.2551 38.0233L37.5834 35.695L35.7501 33.8067ZM21.0834 39.875C23.1184 39.875 24.7501 38.2433 24.7501 36.2083H17.4167C17.4167 38.2433 19.0484 39.875 21.0834 39.875ZM32.0834 26.455V19.7083C32.0834 14.0617 29.0767 9.36833 23.8334 8.12167V6.875C23.8334 5.35333 22.6051 4.125 21.0834 4.125C19.5617 4.125 18.3334 5.35333 18.3334 6.875V8.12167C18.0584 8.17667 17.8017 8.26833 17.5634 8.34167C17.3801 8.39667 17.1967 8.47 17.0134 8.54333H16.9951C16.9767 8.54333 16.9767 8.54333 16.9584 8.56167C16.5367 8.72667 16.1151 8.92833 15.7117 9.13C15.7117 9.13 15.6934 9.13 15.6934 9.14833L32.0834 26.455Z"/>
</svg>
