<svg viewBox="0 0 44 44" xmlns="http://www.w3.org/2000/svg">
  <path d="M13.8967 7.02167L11.275 4.4C6.87501 7.755 3.97835 12.925 3.72168 18.7917H7.38835C7.66335 13.9333 10.1567 9.68 13.8967 7.02167ZM36.6117 18.7917H40.2783C40.0033 12.925 37.1067 7.755 32.725 4.4L30.1217 7.02167C33.825 9.68 36.3367 13.9333 36.6117 18.7917ZM33 19.7083C33 14.08 29.9933 9.36833 24.75 8.12167V6.875C24.75 5.35333 23.5217 4.125 22 4.125C20.4783 4.125 19.25 5.35333 19.25 6.875V8.12167C13.9883 9.36833 11 14.0617 11 19.7083V28.875L7.33335 32.5417V34.375H36.6667V32.5417L33 28.875V19.7083ZM22 39.875C22.2567 39.875 22.495 39.8567 22.7333 39.8017C23.925 39.545 24.8967 38.7383 25.3733 37.6383C25.5567 37.1983 25.6483 36.7217 25.6483 36.2083H18.315C18.3333 38.225 19.965 39.875 22 39.875Z"/>
</svg>
