<svg viewBox="0 0 44 44" xmlns="http://www.w3.org/2000/svg">
  <path d="M22 12.8333C16.94 12.8333 12.8333 16.94 12.8333 22C12.8333 27.06 16.94 31.1666 22 31.1666C27.06 31.1666 31.1667 27.06 31.1667 22C31.1667 16.94 27.06 12.8333 22 12.8333ZM22 3.66663C11.88 3.66663 3.66666 11.88 3.66666 22C3.66666 32.12 11.88 40.3333 22 40.3333C32.12 40.3333 40.3333 32.12 40.3333 22C40.3333 11.88 32.12 3.66663 22 3.66663ZM22 36.6666C13.8967 36.6666 7.33332 30.1033 7.33332 22C7.33332 13.8966 13.8967 7.33329 22 7.33329C30.1033 7.33329 36.6667 13.8966 36.6667 22C36.6667 30.1033 30.1033 36.6666 22 36.6666Z"/>
</svg>
